<?xml version="1.0" encoding="UTF-8" standalone="no"?><svg xmlns="http://www.w3.org/2000/svg" xmlns:xlink="http://www.w3.org/1999/xlink" clip-rule="evenodd" stroke-miterlimit="10" viewBox="0 0 1920 1080"><desc>SVG generated by Keynote</desc><defs><radialGradient id="gradSh1.5" cx="0.0" cy="0.0" r="100.0" fx="0.0" fy="0.0" gradientUnits="userSpaceOnUse" gradientTransform="matrix(9.61, -5.41, -5.41, -9.61, 960.0, 540.0)"><stop offset="0.00000" stop-color="#424242"></stop><stop offset="0.01686" stop-color="#414141"></stop><stop offset="1.00000" stop-color="#020202"></stop></radialGradient></defs><g transform="matrix(1.00, 0.00, -0.00, -1.00, 0.0, 1080.0)"><g><clipPath id="clip0x618000ca4140"><path d="M 0.0 1080.0 L 1920.0 1080.0 L 1920.0 0.0 L 0.0 0.0 Z M 0.0 1080.0 "></path></clipPath><g clip-path="url(#clip0x618000ca4140)"><path d="M 0.0 1080.0 L 1920.0 1080.0 L 1920.0 0.0 L 0.0 0.0 Z M 0.0 1080.0 " fill="url(#gradSh1.5)"></path></g></g><text xml:space="preserve" font-family="RobotoSlab-Regular,Roboto Slab" font-size="110.0" fill="#FEFFFF" transform="matrix(1.00, 0.00, -0.00, -1.00, 444.9, 623.6)">C</text><text xml:space="preserve" font-family="RobotoSlab-Regular,Roboto Slab" font-size="110.0" fill="#FEFFFF" transform="matrix(1.00, 0.00, -0.00, -1.00, 515.8, 623.6)">h</text><text xml:space="preserve" font-family="RobotoSlab-Regular,Roboto Slab" font-size="110.0" fill="#FEFFFF" transform="matrix(1.00, 0.00, -0.00, -1.00, 586.8, 623.6)">i</text><text xml:space="preserve" font-family="RobotoSlab-Regular,Roboto Slab" font-size="110.0" fill="#FEFFFF" transform="matrix(1.00, 0.00, -0.00, -1.00, 622.9, 623.6)">l</text><text xml:space="preserve" font-family="RobotoSlab-Regular,Roboto Slab" font-size="110.0" fill="#FEFFFF" transform="matrix(1.00, 0.00, -0.00, -1.00, 657.5, 623.6)">e</text><text xml:space="preserve" font-family="RobotoSlab-Regular,Roboto Slab" font-size="110.0" fill="#FEFFFF" transform="matrix(1.00, 0.00, -0.00, -1.00, 716.6, 623.6)"> </text><text xml:space="preserve" font-family="RobotoSlab-Regular,Roboto Slab" font-size="110.0" fill="#FEFFFF" transform="matrix(1.00, 0.00, -0.00, -1.00, 743.9, 623.6)">e</text><text xml:space="preserve" font-family="RobotoSlab-Regular,Roboto Slab" font-size="110.0" fill="#FEFFFF" transform="matrix(1.00, 0.00, -0.00, -1.00, 803.0, 623.6)">s</text><text xml:space="preserve" font-family="RobotoSlab-Regular,Roboto Slab" font-size="110.0" fill="#FEFFFF" transform="matrix(1.00, 0.00, -0.00, -1.00, 859.0, 623.6)"> </text><text xml:space="preserve" font-family="RobotoSlab-Regular,Roboto Slab" font-size="110.0" fill="#FEFFFF" transform="matrix(1.00, 0.00, -0.00, -1.00, 886.3, 623.6)">e</text><text xml:space="preserve" font-family="RobotoSlab-Regular,Roboto Slab" font-size="110.0" fill="#FEFFFF" transform="matrix(1.00, 0.00, -0.00, -1.00, 945.4, 623.6)">l</text><text xml:space="preserve" font-family="RobotoSlab-Regular,Roboto Slab" font-size="110.0" fill="#FEFFFF" transform="matrix(1.00, 0.00, -0.00, -1.00, 980.1, 623.6)"> </text><text xml:space="preserve" font-family="RobotoSlab-Regular,Roboto Slab" font-size="110.0" fill="#FEFFFF" transform="matrix(1.00, 0.00, -0.00, -1.00, 1007.3, 623.6)">p</text><text xml:space="preserve" font-family="RobotoSlab-Regular,Roboto Slab" font-size="110.0" fill="#FEFFFF" transform="matrix(1.00, 0.00, -0.00, -1.00, 1074.0, 623.6)">a</text><text xml:space="preserve" font-family="RobotoSlab-Regular,Roboto Slab" font-size="110.0" fill="#FEFFFF" transform="matrix(1.00, 0.00, -0.00, -1.00, 1134.6, 623.6)">i</text><text xml:space="preserve" font-family="RobotoSlab-Regular,Roboto Slab" font-size="110.0" fill="#FEFFFF" transform="matrix(1.00, 0.00, -0.00, -1.00, 1170.7, 623.6)">s</text><text xml:space="preserve" font-family="RobotoSlab-Regular,Roboto Slab" font-size="110.0" fill="#FEFFFF" transform="matrix(1.00, 0.00, -0.00, -1.00, 1226.7, 623.6)"> </text><text xml:space="preserve" font-family="RobotoSlab-Regular,Roboto Slab" font-size="110.0" fill="#FEFFFF" transform="matrix(1.00, 0.00, -0.00, -1.00, 1254.0, 623.6)">m</text><text xml:space="preserve" font-family="RobotoSlab-Regular,Roboto Slab" font-size="110.0" fill="#FEFFFF" transform="matrix(1.00, 0.00, -0.00, -1.00, 1357.9, 623.6)">á</text><text xml:space="preserve" font-family="RobotoSlab-Regular,Roboto Slab" font-size="110.0" fill="#FEFFFF" transform="matrix(1.00, 0.00, -0.00, -1.00, 1418.5, 623.6)">s</text><text xml:space="preserve" font-family="RobotoSlab-Regular,Roboto Slab" font-size="110.0" fill="#FEFFFF" transform="matrix(1.00, 0.00, -0.00, -1.00, 1474.5, 623.6)"> </text><text xml:space="preserve" font-family="RobotoSlab-Regular,Roboto Slab" font-size="110.0" fill="#FEFFFF" transform="matrix(1.00, 0.00, -0.00, -1.00, 347.4, 478.6)">d</text><text xml:space="preserve" font-family="RobotoSlab-Regular,Roboto Slab" font-size="110.0" fill="#FEFFFF" transform="matrix(1.00, 0.00, -0.00, -1.00, 413.4, 478.6)">e</text><text xml:space="preserve" font-family="RobotoSlab-Regular,Roboto Slab" font-size="110.0" fill="#FEFFFF" transform="matrix(1.00, 0.00, -0.00, -1.00, 472.5, 478.6)">s</text><text xml:space="preserve" font-family="RobotoSlab-Regular,Roboto Slab" font-size="110.0" fill="#FEFFFF" transform="matrix(1.00, 0.00, -0.00, -1.00, 528.6, 478.6)">c</text><text xml:space="preserve" font-family="RobotoSlab-Regular,Roboto Slab" font-size="110.0" fill="#FEFFFF" transform="matrix(1.00, 0.00, -0.00, -1.00, 587.9, 478.6)">o</text><text xml:space="preserve" font-family="RobotoSlab-Regular,Roboto Slab" font-size="110.0" fill="#FEFFFF" transform="matrix(1.00, 0.00, -0.00, -1.00, 649.6, 478.6)">n</text><text xml:space="preserve" font-family="RobotoSlab-Regular,Roboto Slab" font-size="110.0" fill="#FEFFFF" transform="matrix(1.00, 0.00, -0.00, -1.00, 720.3, 478.6)">ﬁ</text><text xml:space="preserve" font-family="RobotoSlab-Regular,Roboto Slab" font-size="110.0" fill="#FEFFFF" transform="matrix(1.00, 0.00, -0.00, -1.00, 786.9, 478.6)">a</text><text xml:space="preserve" font-family="RobotoSlab-Regular,Roboto Slab" font-size="110.0" fill="#FEFFFF" transform="matrix(1.00, 0.00, -0.00, -1.00, 847.4, 478.6)">d</text><text xml:space="preserve" font-family="RobotoSlab-Regular,Roboto Slab" font-size="110.0" fill="#FEFFFF" transform="matrix(1.00, 0.00, -0.00, -1.00, 913.5, 478.6)">o</text><text xml:space="preserve" font-family="RobotoSlab-Regular,Roboto Slab" font-size="110.0" fill="#FEFFFF" transform="matrix(1.00, 0.00, -0.00, -1.00, 975.2, 478.6)"> </text><text xml:space="preserve" font-family="RobotoSlab-Regular,Roboto Slab" font-size="110.0" fill="#FEFFFF" transform="matrix(1.00, 0.00, -0.00, -1.00, 1002.5, 478.6)">d</text><text xml:space="preserve" font-family="RobotoSlab-Regular,Roboto Slab" font-size="110.0" fill="#FEFFFF" transform="matrix(1.00, 0.00, -0.00, -1.00, 1068.5, 478.6)">e</text><text xml:space="preserve" font-family="RobotoSlab-Regular,Roboto Slab" font-size="110.0" fill="#FEFFFF" transform="matrix(1.00, 0.00, -0.00, -1.00, 1127.6, 478.6)"> </text><text xml:space="preserve" font-family="RobotoSlab-Regular,Roboto Slab" font-size="110.0" fill="#FEFFFF" transform="matrix(1.00, 0.00, -0.00, -1.00, 1154.9, 478.6)">l</text><text xml:space="preserve" font-family="RobotoSlab-Regular,Roboto Slab" font-size="110.0" fill="#FEFFFF" transform="matrix(1.00, 0.00, -0.00, -1.00, 1189.5, 478.6)">a</text><text xml:space="preserve" font-family="RobotoSlab-Regular,Roboto Slab" font-size="110.0" fill="#FEFFFF" transform="matrix(1.00, 0.00, -0.00, -1.00, 1250.1, 478.6)"> </text><text xml:space="preserve" font-family="RobotoSlab-Regular,Roboto Slab" font-size="110.0" fill="#FEFFFF" transform="matrix(1.00, 0.00, -0.00, -1.00, 1277.3, 478.6)">O</text><text xml:space="preserve" font-family="RobotoSlab-Regular,Roboto Slab" font-size="110.0" fill="#FEFFFF" transform="matrix(1.00, 0.00, -0.00, -1.00, 1354.9, 478.6)">C</text><text xml:space="preserve" font-family="RobotoSlab-Regular,Roboto Slab" font-size="110.0" fill="#FEFFFF" transform="matrix(1.00, 0.00, -0.00, -1.00, 1425.9, 478.6)">D</text><text xml:space="preserve" font-family="RobotoSlab-Regular,Roboto Slab" font-size="110.0" fill="#FEFFFF" transform="matrix(1.00, 0.00, -0.00, -1.00, 1502.1, 478.6)">E</text><text xml:space="preserve" font-family="Harrington,Harrington" font-size="500.0" fill="#00AAD1" transform="matrix(1.00, 0.00, -0.00, -1.00, 861.4, 569.0)">“</text><text xml:space="preserve" font-family="Harrington,Harrington" font-size="500.0" fill="#00AAD1" transform="matrix(1.00, 0.00, -0.00, -1.00, 861.4, -6.5)">”</text><text xml:space="preserve" font-family="Helvetica-Light,Helvetica" font-size="50.0" fill="#FEFFFF" transform="matrix(1.00, 0.00, -0.00, -1.00, 1067.5, 118.8)">Í</text><text xml:space="preserve" font-family="Helvetica-Light,Helvetica" font-size="50.0" fill="#FEFFFF" transform="matrix(1.00, 0.00, -0.00, -1.00, 1081.4, 118.8)">n</text><text xml:space="preserve" font-family="Helvetica-Light,Helvetica" font-size="50.0" fill="#FEFFFF" transform="matrix(1.00, 0.00, -0.00, -1.00, 1109.2, 118.8)">d</text><text xml:space="preserve" font-family="Helvetica-Light,Helvetica" font-size="50.0" fill="#FEFFFF" transform="matrix(1.00, 0.00, -0.00, -1.00, 1139.7, 118.8)">i</text><text xml:space="preserve" font-family="Helvetica-Light,Helvetica" font-size="50.0" fill="#FEFFFF" transform="matrix(1.00, 0.00, -0.00, -1.00, 1150.8, 118.8)">c</text><text xml:space="preserve" font-family="Helvetica-Light,Helvetica" font-size="50.0" fill="#FEFFFF" transform="matrix(1.00, 0.00, -0.00, -1.00, 1178.6, 118.8)">e</text><text xml:space="preserve" font-family="Helvetica-Light,Helvetica" font-size="50.0" fill="#FEFFFF" transform="matrix(1.00, 0.00, -0.00, -1.00, 1206.4, 118.8)"> </text><text xml:space="preserve" font-family="Helvetica-Light,Helvetica" font-size="50.0" fill="#FEFFFF" transform="matrix(1.00, 0.00, -0.00, -1.00, 1220.3, 118.8)">d</text><text xml:space="preserve" font-family="Helvetica-Light,Helvetica" font-size="50.0" fill="#FEFFFF" transform="matrix(1.00, 0.00, -0.00, -1.00, 1250.9, 118.8)">e</text><text xml:space="preserve" font-family="Helvetica-Light,Helvetica" font-size="50.0" fill="#FEFFFF" transform="matrix(1.00, 0.00, -0.00, -1.00, 1278.7, 118.8)"> </text><text xml:space="preserve" font-family="Helvetica-Light,Helvetica" font-size="50.0" fill="#FEFFFF" transform="matrix(1.00, 0.00, -0.00, -1.00, 1292.6, 118.8)">P</text><text xml:space="preserve" font-family="Helvetica-Light,Helvetica" font-size="50.0" fill="#FEFFFF" transform="matrix(1.00, 0.00, -0.00, -1.00, 1323.1, 118.8)">r</text><text xml:space="preserve" font-family="Helvetica-Light,Helvetica" font-size="50.0" fill="#FEFFFF" transform="matrix(1.00, 0.00, -0.00, -1.00, 1338.9, 118.8)">o</text><text xml:space="preserve" font-family="Helvetica-Light,Helvetica" font-size="50.0" fill="#FEFFFF" transform="matrix(1.00, 0.00, -0.00, -1.00, 1366.7, 118.8)">s</text><text xml:space="preserve" font-family="Helvetica-Light,Helvetica" font-size="50.0" fill="#FEFFFF" transform="matrix(1.00, 0.00, -0.00, -1.00, 1391.7, 118.8)">p</text><text xml:space="preserve" font-family="Helvetica-Light,Helvetica" font-size="50.0" fill="#FEFFFF" transform="matrix(1.00, 0.00, -0.00, -1.00, 1422.2, 118.8)">e</text><text xml:space="preserve" font-family="Helvetica-Light,Helvetica" font-size="50.0" fill="#FEFFFF" transform="matrix(1.00, 0.00, -0.00, -1.00, 1450.0, 118.8)">r</text><text xml:space="preserve" font-family="Helvetica-Light,Helvetica" font-size="50.0" fill="#FEFFFF" transform="matrix(1.00, 0.00, -0.00, -1.00, 1466.7, 118.8)">i</text><text xml:space="preserve" font-family="Helvetica-Light,Helvetica" font-size="50.0" fill="#FEFFFF" transform="matrix(1.00, 0.00, -0.00, -1.00, 1477.8, 118.8)">d</text><text xml:space="preserve" font-family="Helvetica-Light,Helvetica" font-size="50.0" fill="#FEFFFF" transform="matrix(1.00, 0.00, -0.00, -1.00, 1508.3, 118.8)">a</text><text xml:space="preserve" font-family="Helvetica-Light,Helvetica" font-size="50.0" fill="#FEFFFF" transform="matrix(1.00, 0.00, -0.00, -1.00, 1536.1, 118.8)">d</text><text xml:space="preserve" font-family="Helvetica-Light,Helvetica" font-size="50.0" fill="#FEFFFF" transform="matrix(1.00, 0.00, -0.00, -1.00, 1566.7, 118.8)"> </text><text xml:space="preserve" font-family="Helvetica-Light,Helvetica" font-size="50.0" fill="#FEFFFF" transform="matrix(1.00, 0.00, -0.00, -1.00, 1580.6, 118.8)">L</text><text xml:space="preserve" font-family="Helvetica-Light,Helvetica" font-size="50.0" fill="#FEFFFF" transform="matrix(1.00, 0.00, -0.00, -1.00, 1608.4, 118.8)">e</text><text xml:space="preserve" font-family="Helvetica-Light,Helvetica" font-size="50.0" fill="#FEFFFF" transform="matrix(1.00, 0.00, -0.00, -1.00, 1636.2, 118.8)">g</text><text xml:space="preserve" font-family="Helvetica-Light,Helvetica" font-size="50.0" fill="#FEFFFF" transform="matrix(1.00, 0.00, -0.00, -1.00, 1666.7, 118.8)">a</text><text xml:space="preserve" font-family="Helvetica-Light,Helvetica" font-size="50.0" fill="#FEFFFF" transform="matrix(1.00, 0.00, -0.00, -1.00, 1694.5, 118.8)">t</text><text xml:space="preserve" font-family="Helvetica-Light,Helvetica" font-size="50.0" fill="#FEFFFF" transform="matrix(1.00, 0.00, -0.00, -1.00, 1708.4, 118.8)">u</text><text xml:space="preserve" font-family="Helvetica-Light,Helvetica" font-size="50.0" fill="#FEFFFF" transform="matrix(1.00, 0.00, -0.00, -1.00, 1736.2, 118.8)">m</text></g></svg>