<?xml version="1.0" encoding="UTF-8" standalone="no"?><svg xmlns="http://www.w3.org/2000/svg" xmlns:xlink="http://www.w3.org/1999/xlink" clip-rule="evenodd" stroke-miterlimit="10" viewBox="0 0 1920 1080"><desc>SVG generated by Keynote</desc><defs><radialGradient id="gradSh1.8" cx="0.0" cy="0.0" r="100.0" fx="0.0" fy="0.0" gradientUnits="userSpaceOnUse" gradientTransform="matrix(9.61, -5.41, -5.41, -9.61, 960.0, 540.0)"><stop offset="0.00000" stop-color="#424242"></stop><stop offset="0.01686" stop-color="#414141"></stop><stop offset="1.00000" stop-color="#020202"></stop></radialGradient></defs><g transform="matrix(1.00, 0.00, -0.00, -1.00, 0.0, 1080.0)"><g><clipPath id="clip0x6080022a07e0"><path d="M 0.0 1080.0 L 1920.0 1080.0 L 1920.0 0.0 L 0.0 0.0 Z M 0.0 1080.0 "></path></clipPath><g clip-path="url(#clip0x6080022a07e0)"><path d="M 0.0 1080.0 L 1920.0 1080.0 L 1920.0 0.0 L 0.0 0.0 Z M 0.0 1080.0 " fill="url(#gradSh1.8)"></path></g></g><text xml:space="preserve" font-family="RobotoSlab-Regular,Roboto Slab" font-size="110.0" fill="#FEFFFF" transform="matrix(1.00, 0.00, -0.00, -1.00, 641.5, 642.3)">D</text><text xml:space="preserve" font-family="RobotoSlab-Regular,Roboto Slab" font-size="110.0" fill="#FEFFFF" transform="matrix(1.00, 0.00, -0.00, -1.00, 717.7, 642.3)">e</text><text xml:space="preserve" font-family="RobotoSlab-Regular,Roboto Slab" font-size="110.0" fill="#FEFFFF" transform="matrix(1.00, 0.00, -0.00, -1.00, 776.8, 642.3)">s</text><text xml:space="preserve" font-family="RobotoSlab-Regular,Roboto Slab" font-size="110.0" fill="#FEFFFF" transform="matrix(1.00, 0.00, -0.00, -1.00, 832.9, 642.3)">c</text><text xml:space="preserve" font-family="RobotoSlab-Regular,Roboto Slab" font-size="110.0" fill="#FEFFFF" transform="matrix(1.00, 0.00, -0.00, -1.00, 892.2, 642.3)">o</text><text xml:space="preserve" font-family="RobotoSlab-Regular,Roboto Slab" font-size="110.0" fill="#FEFFFF" transform="matrix(1.00, 0.00, -0.00, -1.00, 953.9, 642.3)">n</text><text xml:space="preserve" font-family="RobotoSlab-Regular,Roboto Slab" font-size="110.0" fill="#FEFFFF" transform="matrix(1.00, 0.00, -0.00, -1.00, 1024.6, 642.3)">ﬁ</text><text xml:space="preserve" font-family="RobotoSlab-Regular,Roboto Slab" font-size="110.0" fill="#FEFFFF" transform="matrix(1.00, 0.00, -0.00, -1.00, 1091.2, 642.3)">a</text><text xml:space="preserve" font-family="RobotoSlab-Regular,Roboto Slab" font-size="110.0" fill="#FEFFFF" transform="matrix(1.00, 0.00, -0.00, -1.00, 1151.8, 642.3)">d</text><text xml:space="preserve" font-family="RobotoSlab-Regular,Roboto Slab" font-size="110.0" fill="#FEFFFF" transform="matrix(1.00, 0.00, -0.00, -1.00, 1217.8, 642.3)">a</text><text xml:space="preserve" font-family="RobotoSlab-Regular,Roboto Slab" font-size="110.0" fill="#FEFFFF" transform="matrix(1.00, 0.00, -0.00, -1.00, 1278.3, 642.3)"> </text><text xml:space="preserve" font-family="RobotoSlab-Regular,Roboto Slab" font-size="110.0" fill="#FEFFFF" transform="matrix(1.00, 0.00, -0.00, -1.00, 1305.6, 642.3)"> </text><text xml:space="preserve" font-family="RobotoSlab-Regular,Roboto Slab" font-size="110.0" fill="#FEFFFF" transform="matrix(1.00, 0.00, -0.00, -1.00, 412.6, 352.3)">N</text><text xml:space="preserve" font-family="RobotoSlab-Regular,Roboto Slab" font-size="110.0" fill="#FEFFFF" transform="matrix(1.00, 0.00, -0.00, -1.00, 496.4, 352.3)">o</text><text xml:space="preserve" font-family="RobotoSlab-Regular,Roboto Slab" font-size="110.0" fill="#FEFFFF" transform="matrix(1.00, 0.00, -0.00, -1.00, 558.1, 352.3)"> </text><text xml:space="preserve" font-family="RobotoSlab-Regular,Roboto Slab" font-size="110.0" fill="#FEFFFF" transform="matrix(1.00, 0.00, -0.00, -1.00, 585.4, 352.3)">h</text><text xml:space="preserve" font-family="RobotoSlab-Regular,Roboto Slab" font-size="110.0" fill="#FEFFFF" transform="matrix(1.00, 0.00, -0.00, -1.00, 656.3, 352.3)">a</text><text xml:space="preserve" font-family="RobotoSlab-Regular,Roboto Slab" font-size="110.0" fill="#FEFFFF" transform="matrix(1.00, 0.00, -0.00, -1.00, 716.1, 352.3)">y</text><text xml:space="preserve" font-family="RobotoSlab-Regular,Roboto Slab" font-size="110.0" fill="#FEFFFF" transform="matrix(1.00, 0.00, -0.00, -1.00, 778.5, 352.3)"> </text><text xml:space="preserve" font-family="RobotoSlab-Regular,Roboto Slab" font-size="110.0" fill="#FEFFFF" transform="matrix(1.00, 0.00, -0.00, -1.00, 805.8, 352.3)">p</text><text xml:space="preserve" font-family="RobotoSlab-Regular,Roboto Slab" font-size="110.0" fill="#FEFFFF" transform="matrix(1.00, 0.00, -0.00, -1.00, 872.5, 352.3)">a</text><text xml:space="preserve" font-family="RobotoSlab-Regular,Roboto Slab" font-size="110.0" fill="#FEFFFF" transform="matrix(1.00, 0.00, -0.00, -1.00, 933.0, 352.3)">r</text><text xml:space="preserve" font-family="RobotoSlab-Regular,Roboto Slab" font-size="110.0" fill="#FEFFFF" transform="matrix(1.00, 0.00, -0.00, -1.00, 980.2, 352.3)">t</text><text xml:space="preserve" font-family="RobotoSlab-Regular,Roboto Slab" font-size="110.0" fill="#FEFFFF" transform="matrix(1.00, 0.00, -0.00, -1.00, 1020.5, 352.3)">i</text><text xml:space="preserve" font-family="RobotoSlab-Regular,Roboto Slab" font-size="110.0" fill="#FEFFFF" transform="matrix(1.00, 0.00, -0.00, -1.00, 1056.6, 352.3)">c</text><text xml:space="preserve" font-family="RobotoSlab-Regular,Roboto Slab" font-size="110.0" fill="#FEFFFF" transform="matrix(1.00, 0.00, -0.00, -1.00, 1115.9, 352.3)">i</text><text xml:space="preserve" font-family="RobotoSlab-Regular,Roboto Slab" font-size="110.0" fill="#FEFFFF" transform="matrix(1.00, 0.00, -0.00, -1.00, 1152.0, 352.3)">p</text><text xml:space="preserve" font-family="RobotoSlab-Regular,Roboto Slab" font-size="110.0" fill="#FEFFFF" transform="matrix(1.00, 0.00, -0.00, -1.00, 1218.7, 352.3)">a</text><text xml:space="preserve" font-family="RobotoSlab-Regular,Roboto Slab" font-size="110.0" fill="#FEFFFF" transform="matrix(1.00, 0.00, -0.00, -1.00, 1279.2, 352.3)">c</text><text xml:space="preserve" font-family="RobotoSlab-Regular,Roboto Slab" font-size="110.0" fill="#FEFFFF" transform="matrix(1.00, 0.00, -0.00, -1.00, 1338.5, 352.3)">i</text><text xml:space="preserve" font-family="RobotoSlab-Regular,Roboto Slab" font-size="110.0" fill="#FEFFFF" transform="matrix(1.00, 0.00, -0.00, -1.00, 1374.6, 352.3)">ó</text><text xml:space="preserve" font-family="RobotoSlab-Regular,Roboto Slab" font-size="110.0" fill="#FEFFFF" transform="matrix(1.00, 0.00, -0.00, -1.00, 1436.4, 352.3)">n</text></g></svg>