<?xml version="1.0" encoding="UTF-8" standalone="no"?><svg xmlns="http://www.w3.org/2000/svg" xmlns:xlink="http://www.w3.org/1999/xlink" clip-rule="evenodd" stroke-miterlimit="10" viewBox="0 0 823 89"><desc>SVG generated by Keynote</desc><defs></defs><g transform="matrix(1.00, 0.00, -0.00, -1.00, 0.0, 89.0)"><text xml:space="preserve" font-family="Verdana,Verdana" font-size="112.0" fill="#FDA135" transform="matrix(1.00, 0.00, -0.00, -1.00, -3.7, 4.0)">C</text><text xml:space="preserve" font-family="Verdana,Verdana" font-size="112.0" fill="#FDA135" transform="matrix(1.00, 0.00, -0.00, -1.00, 74.5, 4.0)">O</text><text xml:space="preserve" font-family="Verdana,Verdana" font-size="112.0" fill="#FDA135" transform="matrix(1.00, 0.00, -0.00, -1.00, 162.7, 4.0)">M</text><text xml:space="preserve" font-family="Verdana,Verdana" font-size="112.0" fill="#FDA135" transform="matrix(1.00, 0.00, -0.00, -1.00, 257.1, 4.0)">M</text><text xml:space="preserve" font-family="Verdana,Verdana" font-size="112.0" fill="#FDA135" transform="matrix(1.00, 0.00, -0.00, -1.00, 351.4, 4.0)">U</text><text xml:space="preserve" font-family="Verdana,Verdana" font-size="112.0" fill="#FDA135" transform="matrix(1.00, 0.00, -0.00, -1.00, 433.4, 4.0)">N</text><text xml:space="preserve" font-family="Verdana,Verdana" font-size="112.0" fill="#FDA135" transform="matrix(1.00, 0.00, -0.00, -1.00, 517.2, 4.0)">I</text><text xml:space="preserve" font-family="Verdana,Verdana" font-size="112.0" fill="#FDA135" transform="matrix(1.00, 0.00, -0.00, -1.00, 564.3, 4.0)">T</text><text xml:space="preserve" font-family="Verdana,Verdana" font-size="112.0" fill="#FDA135" transform="matrix(1.00, 0.00, -0.00, -1.00, 633.4, 4.0)">I</text><text xml:space="preserve" font-family="Verdana,Verdana" font-size="112.0" fill="#FDA135" transform="matrix(1.00, 0.00, -0.00, -1.00, 680.5, 4.0)">E</text><text xml:space="preserve" font-family="Verdana,Verdana" font-size="112.0" fill="#FDA135" transform="matrix(1.00, 0.00, -0.00, -1.00, 751.3, 4.0)">S</text></g></svg>