<?xml version="1.0" encoding="UTF-8" standalone="no"?><svg xmlns="http://www.w3.org/2000/svg" xmlns:xlink="http://www.w3.org/1999/xlink" clip-rule="evenodd" stroke-miterlimit="10" viewBox="0 0 733 89"><desc>SVG generated by Keynote</desc><defs></defs><g transform="matrix(1.00, 0.00, -0.00, -1.00, 0.0, 89.0)"><text xml:space="preserve" font-family="Verdana,Verdana" font-size="112.0" fill="#FEFFFF" transform="matrix(1.00, 0.00, -0.00, -1.00, -8.8, 4.0)">D</text><text xml:space="preserve" font-family="Verdana,Verdana" font-size="112.0" fill="#FEFFFF" transform="matrix(1.00, 0.00, -0.00, -1.00, 77.4, 4.0)">E</text><text xml:space="preserve" font-family="Verdana,Verdana" font-size="112.0" fill="#FEFFFF" transform="matrix(1.00, 0.00, -0.00, -1.00, 148.3, 4.0)">V</text><text xml:space="preserve" font-family="Verdana,Verdana" font-size="112.0" fill="#FEFFFF" transform="matrix(1.00, 0.00, -0.00, -1.00, 224.8, 4.0)">E</text><text xml:space="preserve" font-family="Verdana,Verdana" font-size="112.0" fill="#FEFFFF" transform="matrix(1.00, 0.00, -0.00, -1.00, 295.7, 4.0)">L</text><text xml:space="preserve" font-family="Verdana,Verdana" font-size="112.0" fill="#FEFFFF" transform="matrix(1.00, 0.00, -0.00, -1.00, 356.9, 4.0)">O</text><text xml:space="preserve" font-family="Verdana,Verdana" font-size="112.0" fill="#FEFFFF" transform="matrix(1.00, 0.00, -0.00, -1.00, 445.0, 4.0)">P</text><text xml:space="preserve" font-family="Verdana,Verdana" font-size="112.0" fill="#FEFFFF" transform="matrix(1.00, 0.00, -0.00, -1.00, 512.6, 4.0)">E</text><text xml:space="preserve" font-family="Verdana,Verdana" font-size="112.0" fill="#FEFFFF" transform="matrix(1.00, 0.00, -0.00, -1.00, 583.4, 4.0)">R</text><text xml:space="preserve" font-family="Verdana,Verdana" font-size="112.0" fill="#FEFFFF" transform="matrix(1.00, 0.00, -0.00, -1.00, 661.3, 4.0)">S</text></g></svg>