<?xml version="1.0" encoding="UTF-8" standalone="no"?><svg xmlns="http://www.w3.org/2000/svg" xmlns:xlink="http://www.w3.org/1999/xlink" clip-rule="evenodd" stroke-miterlimit="10" viewBox="0 0 1920 1080"><desc>SVG generated by Keynote</desc><defs></defs><g transform="matrix(1.00, 0.00, -0.00, -1.00, 0.0, 1080.0)"><path d="M 0.0 1080.0 L 1920.0 1080.0 L 1920.0 0.0 L 0.0 0.0 Z M 0.0 1080.0 " fill="#FEFFFE"></path><image xlink:href="../../6B676683-E21A-49C6-85D5-B3F5012294B2/assets/B019FFFB5F9FF89028A91A9B9DFFC9FF.png" width="960.00" height="544.00" transform="matrix(1.63, 0.00, -0.00, -1.63, 179.0, 926.0)"></image><text xml:space="preserve" font-family="AmericanTypewriter,American Typewriter" font-size="200.0" fill="#FF272D" transform="matrix(1.00, 0.00, -0.00, -1.00, 657.8, 707.3)">S</text><text xml:space="preserve" font-family="AmericanTypewriter,American Typewriter" font-size="200.0" fill="#FF272D" transform="matrix(1.00, 0.00, -0.00, -1.00, 781.6, 707.3)">H</text><text xml:space="preserve" font-family="AmericanTypewriter,American Typewriter" font-size="200.0" fill="#FF272D" transform="matrix(1.00, 0.00, -0.00, -1.00, 938.2, 707.3)">I</text><text xml:space="preserve" font-family="AmericanTypewriter,American Typewriter" font-size="200.0" fill="#FF272D" transform="matrix(1.00, 0.00, -0.00, -1.00, 1014.6, 707.3)">R</text><text xml:space="preserve" font-family="AmericanTypewriter,American Typewriter" font-size="200.0" fill="#FF272D" transform="matrix(1.00, 0.00, -0.00, -1.00, 1156.2, 707.3)">T</text><text xml:space="preserve" font-family="AmericanTypewriter,American Typewriter" font-size="200.0" fill="#FF272D" transform="matrix(1.00, 0.00, -0.00, -1.00, 1283.6, 707.3)"> </text><text xml:space="preserve" font-family="AmericanTypewriter,American Typewriter" font-size="200.0" fill="#FF272D" transform="matrix(1.00, 0.00, -0.00, -1.00, 1333.6, 707.3)"> </text><text xml:space="preserve" font-family="AmericanTypewriter,American Typewriter" font-size="200.0" fill="#FF272D" transform="matrix(1.00, 0.00, -0.00, -1.00, 693.4, 474.5)">T</text><text xml:space="preserve" font-family="AmericanTypewriter,American Typewriter" font-size="200.0" fill="#FF272D" transform="matrix(1.00, 0.00, -0.00, -1.00, 820.8, 474.5)">I</text><text xml:space="preserve" font-family="AmericanTypewriter,American Typewriter" font-size="200.0" fill="#FF272D" transform="matrix(1.00, 0.00, -0.00, -1.00, 897.2, 474.5)">M</text><text xml:space="preserve" font-family="AmericanTypewriter,American Typewriter" font-size="200.0" fill="#FF272D" transform="matrix(1.00, 0.00, -0.00, -1.00, 1086.6, 474.5)">E</text></g></svg>