<?xml version="1.0" encoding="UTF-8" standalone="no"?><svg xmlns="http://www.w3.org/2000/svg" xmlns:xlink="http://www.w3.org/1999/xlink" clip-rule="evenodd" stroke-miterlimit="10" viewBox="0 0 1920 1080"><desc>SVG generated by Keynote</desc><defs></defs><g transform="matrix(1.00, 0.00, -0.00, -1.00, 0.0, 1080.0)"><path d="M 0.0 1080.0 L 1920.0 1080.0 L 1920.0 0.0 L 0.0 0.0 Z M 0.0 1080.0 " fill="#009E55"></path><image xlink:href="../../601CF78D-8D79-4B2F-AEA8-1CA537C7F5BA/assets/D4C65A17F0C751C117155925D189391A.png" width="2048.00" height="1366.00" transform="matrix(0.98, 0.00, -0.00, -0.98, -42.0, 1316.3)"></image><path d="M -26.0 238.0 L 1946.0 238.0 L 1946.0 40.0 L -26.0 40.0 Z M -25.9 237.6 " fill="#595859" fill-opacity="0.60"></path><text xml:space="preserve" font-family="RobotoSlab-Regular,Roboto Slab" font-size="85.8" fill="#FEFFFF" transform="matrix(1.00, 0.00, -0.00, -1.00, 97.4, 105.3)">R</text><text xml:space="preserve" font-family="RobotoSlab-Regular,Roboto Slab" font-size="85.8" fill="#FEFFFF" transform="matrix(1.00, 0.00, -0.00, -1.00, 155.5, 105.3)">e</text><text xml:space="preserve" font-family="RobotoSlab-Regular,Roboto Slab" font-size="85.8" fill="#FEFFFF" transform="matrix(1.00, 0.00, -0.00, -1.00, 201.6, 105.3)">g</text><text xml:space="preserve" font-family="RobotoSlab-Regular,Roboto Slab" font-size="85.8" fill="#FEFFFF" transform="matrix(1.00, 0.00, -0.00, -1.00, 250.1, 105.3)">l</text><text xml:space="preserve" font-family="RobotoSlab-Regular,Roboto Slab" font-size="85.8" fill="#FEFFFF" transform="matrix(1.00, 0.00, -0.00, -1.00, 277.2, 105.3)">a</text><text xml:space="preserve" font-family="RobotoSlab-Regular,Roboto Slab" font-size="85.8" fill="#FEFFFF" transform="matrix(1.00, 0.00, -0.00, -1.00, 324.4, 105.3)">s</text><text xml:space="preserve" font-family="RobotoSlab-Regular,Roboto Slab" font-size="85.8" fill="#FEFFFF" transform="matrix(1.00, 0.00, -0.00, -1.00, 368.1, 105.3)"> </text><text xml:space="preserve" font-family="RobotoSlab-Regular,Roboto Slab" font-size="85.8" fill="#FEFFFF" transform="matrix(1.00, 0.00, -0.00, -1.00, 389.4, 105.3)">c</text><text xml:space="preserve" font-family="RobotoSlab-Regular,Roboto Slab" font-size="85.8" fill="#FEFFFF" transform="matrix(1.00, 0.00, -0.00, -1.00, 435.7, 105.3)">l</text><text xml:space="preserve" font-family="RobotoSlab-Regular,Roboto Slab" font-size="85.8" fill="#FEFFFF" transform="matrix(1.00, 0.00, -0.00, -1.00, 462.7, 105.3)">a</text><text xml:space="preserve" font-family="RobotoSlab-Regular,Roboto Slab" font-size="85.8" fill="#FEFFFF" transform="matrix(1.00, 0.00, -0.00, -1.00, 509.9, 105.3)">r</text><text xml:space="preserve" font-family="RobotoSlab-Regular,Roboto Slab" font-size="85.8" fill="#FEFFFF" transform="matrix(1.00, 0.00, -0.00, -1.00, 545.4, 105.3)">a</text><text xml:space="preserve" font-family="RobotoSlab-Regular,Roboto Slab" font-size="85.8" fill="#FEFFFF" transform="matrix(1.00, 0.00, -0.00, -1.00, 592.6, 105.3)">s</text><text xml:space="preserve" font-family="RobotoSlab-Regular,Roboto Slab" font-size="85.8" fill="#FEFFFF" transform="matrix(1.00, 0.00, -0.00, -1.00, 636.3, 105.3)">,</text><text xml:space="preserve" font-family="RobotoSlab-Regular,Roboto Slab" font-size="85.8" fill="#FEFFFF" transform="matrix(1.00, 0.00, -0.00, -1.00, 653.3, 105.3)"> </text><text xml:space="preserve" font-family="RobotoSlab-Regular,Roboto Slab" font-size="85.8" fill="#FEFFFF" transform="matrix(1.00, 0.00, -0.00, -1.00, 674.6, 105.3)">i</text><text xml:space="preserve" font-family="RobotoSlab-Regular,Roboto Slab" font-size="85.8" fill="#FEFFFF" transform="matrix(1.00, 0.00, -0.00, -1.00, 702.8, 105.3)">m</text><text xml:space="preserve" font-family="RobotoSlab-Regular,Roboto Slab" font-size="85.8" fill="#FEFFFF" transform="matrix(1.00, 0.00, -0.00, -1.00, 783.9, 105.3)">p</text><text xml:space="preserve" font-family="RobotoSlab-Regular,Roboto Slab" font-size="85.8" fill="#FEFFFF" transform="matrix(1.00, 0.00, -0.00, -1.00, 835.4, 105.3)">l</text><text xml:space="preserve" font-family="RobotoSlab-Regular,Roboto Slab" font-size="85.8" fill="#FEFFFF" transform="matrix(1.00, 0.00, -0.00, -1.00, 862.4, 105.3)">e</text><text xml:space="preserve" font-family="RobotoSlab-Regular,Roboto Slab" font-size="85.8" fill="#FEFFFF" transform="matrix(1.00, 0.00, -0.00, -1.00, 908.6, 105.3)">m</text><text xml:space="preserve" font-family="RobotoSlab-Regular,Roboto Slab" font-size="85.8" fill="#FEFFFF" transform="matrix(1.00, 0.00, -0.00, -1.00, 989.2, 105.3)">e</text><text xml:space="preserve" font-family="RobotoSlab-Regular,Roboto Slab" font-size="85.8" fill="#FEFFFF" transform="matrix(1.00, 0.00, -0.00, -1.00, 1035.3, 105.3)">n</text><text xml:space="preserve" font-family="RobotoSlab-Regular,Roboto Slab" font-size="85.8" fill="#FEFFFF" transform="matrix(1.00, 0.00, -0.00, -1.00, 1090.5, 105.3)">t</text><text xml:space="preserve" font-family="RobotoSlab-Regular,Roboto Slab" font-size="85.8" fill="#FEFFFF" transform="matrix(1.00, 0.00, -0.00, -1.00, 1121.9, 105.3)">a</text><text xml:space="preserve" font-family="RobotoSlab-Regular,Roboto Slab" font-size="85.8" fill="#FEFFFF" transform="matrix(1.00, 0.00, -0.00, -1.00, 1169.1, 105.3)">b</text><text xml:space="preserve" font-family="RobotoSlab-Regular,Roboto Slab" font-size="85.8" fill="#FEFFFF" transform="matrix(1.00, 0.00, -0.00, -1.00, 1218.4, 105.3)">l</text><text xml:space="preserve" font-family="RobotoSlab-Regular,Roboto Slab" font-size="85.8" fill="#FEFFFF" transform="matrix(1.00, 0.00, -0.00, -1.00, 1245.4, 105.3)">e</text><text xml:space="preserve" font-family="RobotoSlab-Regular,Roboto Slab" font-size="85.8" fill="#FEFFFF" transform="matrix(1.00, 0.00, -0.00, -1.00, 1291.5, 105.3)">,</text><text xml:space="preserve" font-family="RobotoSlab-Regular,Roboto Slab" font-size="85.8" fill="#FEFFFF" transform="matrix(1.00, 0.00, -0.00, -1.00, 1308.5, 105.3)"> </text><text xml:space="preserve" font-family="RobotoSlab-Regular,Roboto Slab" font-size="85.8" fill="#FEFFFF" transform="matrix(1.00, 0.00, -0.00, -1.00, 1329.8, 105.3)">e</text><text xml:space="preserve" font-family="RobotoSlab-Regular,Roboto Slab" font-size="85.8" fill="#FEFFFF" transform="matrix(1.00, 0.00, -0.00, -1.00, 1375.9, 105.3)">n</text><text xml:space="preserve" font-family="RobotoSlab-Regular,Roboto Slab" font-size="85.8" fill="#FEFFFF" transform="matrix(1.00, 0.00, -0.00, -1.00, 1431.1, 105.3)">t</text><text xml:space="preserve" font-family="RobotoSlab-Regular,Roboto Slab" font-size="85.8" fill="#FEFFFF" transform="matrix(1.00, 0.00, -0.00, -1.00, 1462.5, 105.3)">r</text><text xml:space="preserve" font-family="RobotoSlab-Regular,Roboto Slab" font-size="85.8" fill="#FEFFFF" transform="matrix(1.00, 0.00, -0.00, -1.00, 1497.1, 105.3)">e</text><text xml:space="preserve" font-family="RobotoSlab-Regular,Roboto Slab" font-size="85.8" fill="#FEFFFF" transform="matrix(1.00, 0.00, -0.00, -1.00, 1543.2, 105.3)">t</text><text xml:space="preserve" font-family="RobotoSlab-Regular,Roboto Slab" font-size="85.8" fill="#FEFFFF" transform="matrix(1.00, 0.00, -0.00, -1.00, 1574.6, 105.3)">e</text><text xml:space="preserve" font-family="RobotoSlab-Regular,Roboto Slab" font-size="85.8" fill="#FEFFFF" transform="matrix(1.00, 0.00, -0.00, -1.00, 1620.7, 105.3)">n</text><text xml:space="preserve" font-family="RobotoSlab-Regular,Roboto Slab" font-size="85.8" fill="#FEFFFF" transform="matrix(1.00, 0.00, -0.00, -1.00, 1675.9, 105.3)">i</text><text xml:space="preserve" font-family="RobotoSlab-Regular,Roboto Slab" font-size="85.8" fill="#FEFFFF" transform="matrix(1.00, 0.00, -0.00, -1.00, 1704.1, 105.3)">d</text><text xml:space="preserve" font-family="RobotoSlab-Regular,Roboto Slab" font-size="85.8" fill="#FEFFFF" transform="matrix(1.00, 0.00, -0.00, -1.00, 1755.6, 105.3)">a</text></g></svg>