<?xml version="1.0" encoding="UTF-8" standalone="no"?><svg xmlns="http://www.w3.org/2000/svg" xmlns:xlink="http://www.w3.org/1999/xlink" clip-rule="evenodd" stroke-miterlimit="10" viewBox="0 0 376 66"><desc>SVG generated by Keynote</desc><defs></defs><g transform="matrix(1.00, 0.00, -0.00, -1.00, 0.0, 66.0)"><text xml:space="preserve" font-family="Verdana,Verdana" font-size="80.0" fill="#FEFFFF" transform="matrix(1.00, 0.00, -0.00, -1.00, -0.7, 2.8)">f</text><text xml:space="preserve" font-family="Verdana,Verdana" font-size="80.0" fill="#FEFFFF" transform="matrix(1.00, 0.00, -0.00, -1.00, 27.4, 2.8)">u</text><text xml:space="preserve" font-family="Verdana,Verdana" font-size="80.0" fill="#FEFFFF" transform="matrix(1.00, 0.00, -0.00, -1.00, 78.0, 2.8)">n</text><text xml:space="preserve" font-family="Verdana,Verdana" font-size="80.0" fill="#FEFFFF" transform="matrix(1.00, 0.00, -0.00, -1.00, 128.6, 2.8)">c</text><text xml:space="preserve" font-family="Verdana,Verdana" font-size="80.0" fill="#FEFFFF" transform="matrix(1.00, 0.00, -0.00, -1.00, 170.2, 2.8)">i</text><text xml:space="preserve" font-family="Verdana,Verdana" font-size="80.0" fill="#FEFFFF" transform="matrix(1.00, 0.00, -0.00, -1.00, 192.2, 2.8)">o</text><text xml:space="preserve" font-family="Verdana,Verdana" font-size="80.0" fill="#FEFFFF" transform="matrix(1.00, 0.00, -0.00, -1.00, 240.8, 2.8)">n</text><text xml:space="preserve" font-family="Verdana,Verdana" font-size="80.0" fill="#FEFFFF" transform="matrix(1.00, 0.00, -0.00, -1.00, 291.4, 2.8)">a</text><text xml:space="preserve" font-family="Verdana,Verdana" font-size="80.0" fill="#FEFFFF" transform="matrix(1.00, 0.00, -0.00, -1.00, 339.4, 2.8)">r</text></g></svg>