<?xml version="1.0" encoding="UTF-8" standalone="no"?><svg xmlns="http://www.w3.org/2000/svg" xmlns:xlink="http://www.w3.org/1999/xlink" clip-rule="evenodd" stroke-miterlimit="10" viewBox="0 0 898 363"><desc>SVG generated by Keynote</desc><defs></defs><g transform="matrix(1.00, 0.00, -0.00, -1.00, 0.0, 363.0)"><text xml:space="preserve" font-family="Verdana,Verdana" font-size="112.0" fill="#FDA135" transform="matrix(1.00, 0.00, -0.00, -1.00, 25.7, 278.0)">C</text><text xml:space="preserve" font-family="Verdana,Verdana" font-size="112.0" fill="#FDA135" transform="matrix(1.00, 0.00, -0.00, -1.00, 103.9, 278.0)">O</text><text xml:space="preserve" font-family="Verdana,Verdana" font-size="112.0" fill="#FDA135" transform="matrix(1.00, 0.00, -0.00, -1.00, 192.0, 278.0)">M</text><text xml:space="preserve" font-family="Verdana,Verdana" font-size="112.0" fill="#FDA135" transform="matrix(1.00, 0.00, -0.00, -1.00, 286.4, 278.0)">M</text><text xml:space="preserve" font-family="Verdana,Verdana" font-size="112.0" fill="#FDA135" transform="matrix(1.00, 0.00, -0.00, -1.00, 380.8, 278.0)">U</text><text xml:space="preserve" font-family="Verdana,Verdana" font-size="112.0" fill="#FDA135" transform="matrix(1.00, 0.00, -0.00, -1.00, 462.7, 278.0)">N</text><text xml:space="preserve" font-family="Verdana,Verdana" font-size="112.0" fill="#FDA135" transform="matrix(1.00, 0.00, -0.00, -1.00, 546.5, 278.0)">I</text><text xml:space="preserve" font-family="Verdana,Verdana" font-size="112.0" fill="#FDA135" transform="matrix(1.00, 0.00, -0.00, -1.00, 593.7, 278.0)">T</text><text xml:space="preserve" font-family="Verdana,Verdana" font-size="112.0" fill="#FDA135" transform="matrix(1.00, 0.00, -0.00, -1.00, 662.7, 278.0)">I</text><text xml:space="preserve" font-family="Verdana,Verdana" font-size="112.0" fill="#FDA135" transform="matrix(1.00, 0.00, -0.00, -1.00, 709.8, 278.0)">E</text><text xml:space="preserve" font-family="Verdana,Verdana" font-size="112.0" fill="#FDA135" transform="matrix(1.00, 0.00, -0.00, -1.00, 780.7, 278.0)">S</text><text xml:space="preserve" font-family="Verdana,Verdana" font-size="112.0" fill="#FDA135" transform="matrix(1.00, 0.00, -0.00, -1.00, 857.2, 278.0)"> </text><text xml:space="preserve" font-family="Verdana,Verdana" font-size="112.0" fill="#FEFFFF" transform="matrix(1.00, 0.00, -0.00, -1.00, 310.0, 141.0)">C</text><text xml:space="preserve" font-family="Verdana,Verdana" font-size="112.0" fill="#FEFFFF" transform="matrix(1.00, 0.00, -0.00, -1.00, 388.3, 141.0)">O</text><text xml:space="preserve" font-family="Verdana,Verdana" font-size="112.0" fill="#FEFFFF" transform="matrix(1.00, 0.00, -0.00, -1.00, 476.4, 141.0)">M</text><text xml:space="preserve" font-family="Verdana,Verdana" font-size="112.0" fill="#FEFFFF" transform="matrix(1.00, 0.00, -0.00, -1.00, 570.8, 141.0)">M</text><text xml:space="preserve" font-family="Verdana,Verdana" font-size="112.0" fill="#FEFFFF" transform="matrix(1.00, 0.00, -0.00, -1.00, 665.3, 141.0)">I</text><text xml:space="preserve" font-family="Verdana,Verdana" font-size="112.0" fill="#FEFFFF" transform="matrix(1.00, 0.00, -0.00, -1.00, 712.4, 141.0)">T</text><text xml:space="preserve" font-family="Verdana,Verdana" font-size="112.0" fill="#FEFFFF" transform="matrix(1.00, 0.00, -0.00, -1.00, 780.8, 141.0)">S</text><text xml:space="preserve" font-family="Verdana,Verdana" font-size="112.0" fill="#FEFFFF" transform="matrix(1.00, 0.00, -0.00, -1.00, 857.3, 141.0)"> </text><text xml:space="preserve" font-family="Verdana,Verdana" font-size="112.0" fill="#FEFFFF" transform="matrix(1.00, 0.00, -0.00, -1.00, 896.5, 141.0)"> </text><text xml:space="preserve" font-family="Verdana,Verdana" font-size="112.0" fill="#FEFFFF" transform="matrix(1.00, 0.00, -0.00, -1.00, 2.2, 4.0)">Y</text><text xml:space="preserve" font-family="Verdana,Verdana" font-size="112.0" fill="#FEFFFF" transform="matrix(1.00, 0.00, -0.00, -1.00, 71.2, 4.0)"> </text><text xml:space="preserve" font-family="Verdana,Verdana" font-size="112.0" fill="#FEFFFF" transform="matrix(1.00, 0.00, -0.00, -1.00, 110.5, 4.0)">D</text><text xml:space="preserve" font-family="Verdana,Verdana" font-size="112.0" fill="#FEFFFF" transform="matrix(1.00, 0.00, -0.00, -1.00, 196.7, 4.0)">E</text><text xml:space="preserve" font-family="Verdana,Verdana" font-size="112.0" fill="#FEFFFF" transform="matrix(1.00, 0.00, -0.00, -1.00, 267.6, 4.0)">V</text><text xml:space="preserve" font-family="Verdana,Verdana" font-size="112.0" fill="#FEFFFF" transform="matrix(1.00, 0.00, -0.00, -1.00, 344.1, 4.0)">E</text><text xml:space="preserve" font-family="Verdana,Verdana" font-size="112.0" fill="#FEFFFF" transform="matrix(1.00, 0.00, -0.00, -1.00, 415.0, 4.0)">L</text><text xml:space="preserve" font-family="Verdana,Verdana" font-size="112.0" fill="#FEFFFF" transform="matrix(1.00, 0.00, -0.00, -1.00, 476.2, 4.0)">O</text><text xml:space="preserve" font-family="Verdana,Verdana" font-size="112.0" fill="#FEFFFF" transform="matrix(1.00, 0.00, -0.00, -1.00, 564.4, 4.0)">P</text><text xml:space="preserve" font-family="Verdana,Verdana" font-size="112.0" fill="#FEFFFF" transform="matrix(1.00, 0.00, -0.00, -1.00, 631.9, 4.0)">E</text><text xml:space="preserve" font-family="Verdana,Verdana" font-size="112.0" fill="#FEFFFF" transform="matrix(1.00, 0.00, -0.00, -1.00, 702.7, 4.0)">R</text><text xml:space="preserve" font-family="Verdana,Verdana" font-size="112.0" fill="#FEFFFF" transform="matrix(1.00, 0.00, -0.00, -1.00, 780.7, 4.0)">S</text></g></svg>