<?xml version="1.0" encoding="UTF-8" standalone="no"?><svg xmlns="http://www.w3.org/2000/svg" xmlns:xlink="http://www.w3.org/1999/xlink" clip-rule="evenodd" stroke-miterlimit="10" viewBox="0 0 738 354"><desc>SVG generated by Keynote</desc><defs></defs><g transform="matrix(1.00, 0.00, -0.00, -1.00, 0.0, 354.0)"><text xml:space="preserve" font-family="Verdana,Verdana" font-size="80.0" fill="#FEFFFF" transform="matrix(1.00, 0.00, -0.00, -1.00, -0.7, 293.8)">P</text><text xml:space="preserve" font-family="Verdana,Verdana" font-size="80.0" fill="#FEFFFF" transform="matrix(1.00, 0.00, -0.00, -1.00, 45.6, 293.8)">o</text><text xml:space="preserve" font-family="Verdana,Verdana" font-size="80.0" fill="#FEFFFF" transform="matrix(1.00, 0.00, -0.00, -1.00, 94.1, 293.8)">r</text><text xml:space="preserve" font-family="Verdana,Verdana" font-size="80.0" fill="#FEFFFF" transform="matrix(1.00, 0.00, -0.00, -1.00, 128.3, 293.8)">q</text><text xml:space="preserve" font-family="Verdana,Verdana" font-size="80.0" fill="#FEFFFF" transform="matrix(1.00, 0.00, -0.00, -1.00, 178.1, 293.8)">u</text><text xml:space="preserve" font-family="Verdana,Verdana" font-size="80.0" fill="#FEFFFF" transform="matrix(1.00, 0.00, -0.00, -1.00, 228.7, 293.8)">e</text><text xml:space="preserve" font-family="Verdana,Verdana" font-size="80.0" fill="#FEFFFF" transform="matrix(1.00, 0.00, -0.00, -1.00, 276.4, 293.8)"> </text><text xml:space="preserve" font-family="Verdana,Verdana" font-size="80.0" fill="#FEFFFF" transform="matrix(1.00, 0.00, -0.00, -1.00, 304.4, 293.8)">n</text><text xml:space="preserve" font-family="Verdana,Verdana" font-size="80.0" fill="#FEFFFF" transform="matrix(1.00, 0.00, -0.00, -1.00, 355.1, 293.8)">o</text><text xml:space="preserve" font-family="Verdana,Verdana" font-size="80.0" fill="#FEFFFF" transform="matrix(1.00, 0.00, -0.00, -1.00, 403.6, 293.8)"> </text><text xml:space="preserve" font-family="Verdana,Verdana" font-size="80.0" fill="#FEFFFF" transform="matrix(1.00, 0.00, -0.00, -1.00, -0.7, 196.8)">f</text><text xml:space="preserve" font-family="Verdana,Verdana" font-size="80.0" fill="#FEFFFF" transform="matrix(1.00, 0.00, -0.00, -1.00, 27.4, 196.8)">u</text><text xml:space="preserve" font-family="Verdana,Verdana" font-size="80.0" fill="#FEFFFF" transform="matrix(1.00, 0.00, -0.00, -1.00, 78.0, 196.8)">n</text><text xml:space="preserve" font-family="Verdana,Verdana" font-size="80.0" fill="#FEFFFF" transform="matrix(1.00, 0.00, -0.00, -1.00, 128.6, 196.8)">c</text><text xml:space="preserve" font-family="Verdana,Verdana" font-size="80.0" fill="#FEFFFF" transform="matrix(1.00, 0.00, -0.00, -1.00, 170.3, 196.8)">i</text><text xml:space="preserve" font-family="Verdana,Verdana" font-size="80.0" fill="#FEFFFF" transform="matrix(1.00, 0.00, -0.00, -1.00, 192.3, 196.8)">o</text><text xml:space="preserve" font-family="Verdana,Verdana" font-size="80.0" fill="#FEFFFF" transform="matrix(1.00, 0.00, -0.00, -1.00, 240.8, 196.8)">n</text><text xml:space="preserve" font-family="Verdana,Verdana" font-size="80.0" fill="#FEFFFF" transform="matrix(1.00, 0.00, -0.00, -1.00, 291.4, 196.8)">a</text><text xml:space="preserve" font-family="Verdana,Verdana" font-size="80.0" fill="#FEFFFF" transform="matrix(1.00, 0.00, -0.00, -1.00, 339.5, 196.8)">n</text><text xml:space="preserve" font-family="Verdana,Verdana" font-size="80.0" fill="#FEFFFF" transform="matrix(1.00, 0.00, -0.00, -1.00, 390.1, 196.8)"> </text><text xml:space="preserve" font-family="Verdana,Verdana" font-size="80.0" fill="#FEFFFF" transform="matrix(1.00, 0.00, -0.00, -1.00, 418.2, 196.8)">y</text><text xml:space="preserve" font-family="Verdana,Verdana" font-size="80.0" fill="#FEFFFF" transform="matrix(1.00, 0.00, -0.00, -1.00, 465.5, 196.8)"> </text><text xml:space="preserve" font-family="Verdana,Verdana" font-size="80.0" fill="#FEFFFF" transform="matrix(1.00, 0.00, -0.00, -1.00, 493.6, 196.8)">u</text><text xml:space="preserve" font-family="Verdana,Verdana" font-size="80.0" fill="#FEFFFF" transform="matrix(1.00, 0.00, -0.00, -1.00, 544.2, 196.8)">n</text><text xml:space="preserve" font-family="Verdana,Verdana" font-size="80.0" fill="#FEFFFF" transform="matrix(1.00, 0.00, -0.00, -1.00, 594.8, 196.8)">a</text><text xml:space="preserve" font-family="Verdana,Verdana" font-size="80.0" fill="#FEFFFF" transform="matrix(1.00, 0.00, -0.00, -1.00, 642.8, 196.8)"> </text><text xml:space="preserve" font-family="Verdana,Verdana" font-size="80.0" fill="#FEFFFF" transform="matrix(1.00, 0.00, -0.00, -1.00, -0.7, 99.8)">i</text><text xml:space="preserve" font-family="Verdana,Verdana" font-size="80.0" fill="#FEFFFF" transform="matrix(1.00, 0.00, -0.00, -1.00, 21.3, 99.8)">d</text><text xml:space="preserve" font-family="Verdana,Verdana" font-size="80.0" fill="#FEFFFF" transform="matrix(1.00, 0.00, -0.00, -1.00, 71.1, 99.8)">e</text><text xml:space="preserve" font-family="Verdana,Verdana" font-size="80.0" fill="#FEFFFF" transform="matrix(1.00, 0.00, -0.00, -1.00, 118.8, 99.8)">a</text><text xml:space="preserve" font-family="Verdana,Verdana" font-size="80.0" fill="#FEFFFF" transform="matrix(1.00, 0.00, -0.00, -1.00, 166.8, 99.8)"> </text><text xml:space="preserve" font-family="Verdana,Verdana" font-size="80.0" fill="#FEFFFF" transform="matrix(1.00, 0.00, -0.00, -1.00, 194.9, 99.8)">d</text><text xml:space="preserve" font-family="Verdana,Verdana" font-size="80.0" fill="#FEFFFF" transform="matrix(1.00, 0.00, -0.00, -1.00, 244.7, 99.8)">e</text><text xml:space="preserve" font-family="Verdana,Verdana" font-size="80.0" fill="#FEFFFF" transform="matrix(1.00, 0.00, -0.00, -1.00, 292.3, 99.8)"> </text><text xml:space="preserve" font-family="Verdana,Verdana" font-size="80.0" fill="#FEFFFF" transform="matrix(1.00, 0.00, -0.00, -1.00, 320.4, 99.8)">c</text><text xml:space="preserve" font-family="Verdana,Verdana" font-size="80.0" fill="#FEFFFF" transform="matrix(1.00, 0.00, -0.00, -1.00, 362.1, 99.8)">o</text><text xml:space="preserve" font-family="Verdana,Verdana" font-size="80.0" fill="#FEFFFF" transform="matrix(1.00, 0.00, -0.00, -1.00, 410.7, 99.8)">m</text><text xml:space="preserve" font-family="Verdana,Verdana" font-size="80.0" fill="#FEFFFF" transform="matrix(1.00, 0.00, -0.00, -1.00, 488.5, 99.8)">o</text><text xml:space="preserve" font-family="Verdana,Verdana" font-size="80.0" fill="#FEFFFF" transform="matrix(1.00, 0.00, -0.00, -1.00, 537.0, 99.8)"> </text><text xml:space="preserve" font-family="Verdana,Verdana" font-size="80.0" fill="#FEFFFF" transform="matrix(1.00, 0.00, -0.00, -1.00, -0.7, 2.8)">h</text><text xml:space="preserve" font-family="Verdana,Verdana" font-size="80.0" fill="#FEFFFF" transform="matrix(1.00, 0.00, -0.00, -1.00, 49.9, 2.8)">a</text><text xml:space="preserve" font-family="Verdana,Verdana" font-size="80.0" fill="#FEFFFF" transform="matrix(1.00, 0.00, -0.00, -1.00, 97.9, 2.8)">c</text><text xml:space="preserve" font-family="Verdana,Verdana" font-size="80.0" fill="#FEFFFF" transform="matrix(1.00, 0.00, -0.00, -1.00, 139.6, 2.8)">e</text><text xml:space="preserve" font-family="Verdana,Verdana" font-size="80.0" fill="#FEFFFF" transform="matrix(1.00, 0.00, -0.00, -1.00, 187.2, 2.8)">r</text><text xml:space="preserve" font-family="Verdana,Verdana" font-size="80.0" fill="#FEFFFF" transform="matrix(1.00, 0.00, -0.00, -1.00, 221.4, 2.8)">l</text><text xml:space="preserve" font-family="Verdana,Verdana" font-size="80.0" fill="#FEFFFF" transform="matrix(1.00, 0.00, -0.00, -1.00, 243.4, 2.8)">a</text><text xml:space="preserve" font-family="Verdana,Verdana" font-size="80.0" fill="#FEFFFF" transform="matrix(1.00, 0.00, -0.00, -1.00, 291.4, 2.8)">s</text><text xml:space="preserve" font-family="Verdana,Verdana" font-size="80.0" fill="#FEFFFF" transform="matrix(1.00, 0.00, -0.00, -1.00, 333.0, 2.8)"> </text><text xml:space="preserve" font-family="Verdana,Verdana" font-size="80.0" fill="#FEFFFF" transform="matrix(1.00, 0.00, -0.00, -1.00, 361.1, 2.8)">f</text><text xml:space="preserve" font-family="Verdana,Verdana" font-size="80.0" fill="#FEFFFF" transform="matrix(1.00, 0.00, -0.00, -1.00, 389.2, 2.8)">u</text><text xml:space="preserve" font-family="Verdana,Verdana" font-size="80.0" fill="#FEFFFF" transform="matrix(1.00, 0.00, -0.00, -1.00, 439.8, 2.8)">n</text><text xml:space="preserve" font-family="Verdana,Verdana" font-size="80.0" fill="#FEFFFF" transform="matrix(1.00, 0.00, -0.00, -1.00, 490.4, 2.8)">c</text><text xml:space="preserve" font-family="Verdana,Verdana" font-size="80.0" fill="#FEFFFF" transform="matrix(1.00, 0.00, -0.00, -1.00, 532.1, 2.8)">i</text><text xml:space="preserve" font-family="Verdana,Verdana" font-size="80.0" fill="#FEFFFF" transform="matrix(1.00, 0.00, -0.00, -1.00, 554.1, 2.8)">o</text><text xml:space="preserve" font-family="Verdana,Verdana" font-size="80.0" fill="#FEFFFF" transform="matrix(1.00, 0.00, -0.00, -1.00, 602.7, 2.8)">n</text><text xml:space="preserve" font-family="Verdana,Verdana" font-size="80.0" fill="#FEFFFF" transform="matrix(1.00, 0.00, -0.00, -1.00, 653.3, 2.8)">a</text><text xml:space="preserve" font-family="Verdana,Verdana" font-size="80.0" fill="#FEFFFF" transform="matrix(1.00, 0.00, -0.00, -1.00, 701.3, 2.8)">r</text></g></svg>