<?xml version="1.0" encoding="UTF-8" standalone="no"?><svg xmlns="http://www.w3.org/2000/svg" xmlns:xlink="http://www.w3.org/1999/xlink" clip-rule="evenodd" stroke-miterlimit="10" viewBox="0 0 622 90"><desc>SVG generated by Keynote</desc><defs></defs><g transform="matrix(1.00, 0.00, -0.00, -1.00, 0.0, 90.0)"><text xml:space="preserve" font-family="RobotoSlab-Regular,Roboto Slab" font-size="110.0" fill="#FEFFFF" transform="matrix(1.00, 0.00, -0.00, -1.00, -3.6, 3.6)">d</text><text xml:space="preserve" font-family="RobotoSlab-Regular,Roboto Slab" font-size="110.0" fill="#FEFFFF" transform="matrix(1.00, 0.00, -0.00, -1.00, 62.4, 3.6)">e</text><text xml:space="preserve" font-family="RobotoSlab-Regular,Roboto Slab" font-size="110.0" fill="#FEFFFF" transform="matrix(1.00, 0.00, -0.00, -1.00, 121.5, 3.6)">s</text><text xml:space="preserve" font-family="RobotoSlab-Regular,Roboto Slab" font-size="110.0" fill="#FEFFFF" transform="matrix(1.00, 0.00, -0.00, -1.00, 177.6, 3.6)">c</text><text xml:space="preserve" font-family="RobotoSlab-Regular,Roboto Slab" font-size="110.0" fill="#FEFFFF" transform="matrix(1.00, 0.00, -0.00, -1.00, 236.9, 3.6)">o</text><text xml:space="preserve" font-family="RobotoSlab-Regular,Roboto Slab" font-size="110.0" fill="#FEFFFF" transform="matrix(1.00, 0.00, -0.00, -1.00, 298.6, 3.6)">n</text><text xml:space="preserve" font-family="RobotoSlab-Regular,Roboto Slab" font-size="110.0" fill="#FEFFFF" transform="matrix(1.00, 0.00, -0.00, -1.00, 369.3, 3.6)">ï¬</text><text xml:space="preserve" font-family="RobotoSlab-Regular,Roboto Slab" font-size="110.0" fill="#FEFFFF" transform="matrix(1.00, 0.00, -0.00, -1.00, 435.9, 3.6)">a</text><text xml:space="preserve" font-family="RobotoSlab-Regular,Roboto Slab" font-size="110.0" fill="#FEFFFF" transform="matrix(1.00, 0.00, -0.00, -1.00, 496.4, 3.6)">d</text><text xml:space="preserve" font-family="RobotoSlab-Regular,Roboto Slab" font-size="110.0" fill="#FEFFFF" transform="matrix(1.00, 0.00, -0.00, -1.00, 562.5, 3.6)">o</text></g></svg>