<?xml version="1.0" encoding="UTF-8" standalone="no"?><svg xmlns="http://www.w3.org/2000/svg" xmlns:xlink="http://www.w3.org/1999/xlink" clip-rule="evenodd" stroke-miterlimit="10" viewBox="0 0 1920 1080"><desc>SVG generated by Keynote</desc><defs></defs><g transform="matrix(1.00, 0.00, -0.00, -1.00, 0.0, 1080.0)"><path d="M 0.0 1080.0 L 1920.0 1080.0 L 1920.0 0.0 L 0.0 0.0 Z M 0.0 1080.0 " fill="#353535"></path><image xlink:href="../../96011545-B09A-439F-8C16-FA4673B60C70/assets/2534A4C98E94F0BF9242650D2919CEEE.png" width="2878.00" height="931.00" transform="matrix(0.20, 0.00, -0.00, -0.20, 668.0, 428.0)"></image><text xml:space="preserve" font-family="Verdana,Verdana" font-size="120.0" fill="#83CC29" transform="matrix(1.00, 0.00, -0.00, -1.00, 545.2, 729.4)">@</text><text xml:space="preserve" font-family="Verdana,Verdana" font-size="120.0" fill="#FEFFFF" transform="matrix(1.00, 0.00, -0.00, -1.00, 665.2, 729.4)">N</text><text xml:space="preserve" font-family="Verdana,Verdana" font-size="120.0" fill="#FEFFFF" transform="matrix(1.00, 0.00, -0.00, -1.00, 755.0, 729.4)">o</text><text xml:space="preserve" font-family="Verdana,Verdana" font-size="120.0" fill="#FEFFFF" transform="matrix(1.00, 0.00, -0.00, -1.00, 827.8, 729.4)">d</text><text xml:space="preserve" font-family="Verdana,Verdana" font-size="120.0" fill="#FEFFFF" transform="matrix(1.00, 0.00, -0.00, -1.00, 902.6, 729.4)">e</text><text xml:space="preserve" font-family="Verdana,Verdana" font-size="120.0" fill="#FEFFFF" transform="matrix(1.00, 0.00, -0.00, -1.00, 974.0, 729.4)">r</text><text xml:space="preserve" font-family="Verdana,Verdana" font-size="120.0" fill="#FEFFFF" transform="matrix(1.00, 0.00, -0.00, -1.00, 1025.2, 729.4)">s</text><text xml:space="preserve" font-family="Verdana,Verdana" font-size="120.0" fill="#FEFFFF" transform="matrix(1.00, 0.00, -0.00, -1.00, 1087.7, 729.4)">C</text><text xml:space="preserve" font-family="Verdana,Verdana" font-size="120.0" fill="#FEFFFF" transform="matrix(1.00, 0.00, -0.00, -1.00, 1171.5, 729.4)">a</text><text xml:space="preserve" font-family="Verdana,Verdana" font-size="120.0" fill="#FEFFFF" transform="matrix(1.00, 0.00, -0.00, -1.00, 1243.6, 729.4)">s</text><text xml:space="preserve" font-family="Verdana,Verdana" font-size="120.0" fill="#FEFFFF" transform="matrix(1.00, 0.00, -0.00, -1.00, 1306.1, 729.4)">t</text><text xml:space="preserve" font-family="Verdana,Verdana" font-size="120.0" fill="#FEFFFF" transform="matrix(1.00, 0.00, -0.00, -1.00, 887.3, 521.5)">b</text><text xml:space="preserve" font-family="Verdana,Verdana" font-size="120.0" fill="#FEFFFF" transform="matrix(1.00, 0.00, -0.00, -1.00, 961.7, 521.5)">y</text></g></svg>