<?xml version="1.0" encoding="UTF-8" standalone="no"?><svg xmlns="http://www.w3.org/2000/svg" xmlns:xlink="http://www.w3.org/1999/xlink" clip-rule="evenodd" stroke-miterlimit="10" viewBox="0 0 1920 1080"><desc>SVG generated by Keynote</desc><defs></defs><g transform="matrix(1.00, 0.00, -0.00, -1.00, 0.0, 1080.0)"><path d="M 0.0 1080.0 L 1920.0 1080.0 L 1920.0 0.0 L 0.0 0.0 Z M 0.0 1080.0 " fill="#323232"></path><text xml:space="preserve" font-family="RobotoSlab-Regular,Roboto Slab" font-size="120.0" fill="#FDA135" transform="matrix(1.00, 0.00, -0.00, -1.00, 339.7, 585.8)">S</text><text xml:space="preserve" font-family="RobotoSlab-Regular,Roboto Slab" font-size="120.0" fill="#FDA135" transform="matrix(1.00, 0.00, -0.00, -1.00, 412.8, 585.8)">i</text><text xml:space="preserve" font-family="RobotoSlab-Regular,Roboto Slab" font-size="120.0" fill="#FDA135" transform="matrix(1.00, 0.00, -0.00, -1.00, 452.2, 585.8)">s</text><text xml:space="preserve" font-family="RobotoSlab-Regular,Roboto Slab" font-size="120.0" fill="#FDA135" transform="matrix(1.00, 0.00, -0.00, -1.00, 513.3, 585.8)">t</text><text xml:space="preserve" font-family="RobotoSlab-Regular,Roboto Slab" font-size="120.0" fill="#FDA135" transform="matrix(1.00, 0.00, -0.00, -1.00, 557.3, 585.8)">e</text><text xml:space="preserve" font-family="RobotoSlab-Regular,Roboto Slab" font-size="120.0" fill="#FDA135" transform="matrix(1.00, 0.00, -0.00, -1.00, 621.7, 585.8)">m</text><text xml:space="preserve" font-family="RobotoSlab-Regular,Roboto Slab" font-size="120.0" fill="#FDA135" transform="matrix(1.00, 0.00, -0.00, -1.00, 735.1, 585.8)">a</text><text xml:space="preserve" font-family="RobotoSlab-Regular,Roboto Slab" font-size="120.0" fill="#FDA135" transform="matrix(1.00, 0.00, -0.00, -1.00, 801.2, 585.8)">s</text><text xml:space="preserve" font-family="RobotoSlab-Regular,Roboto Slab" font-size="120.0" fill="#FDA135" transform="matrix(1.00, 0.00, -0.00, -1.00, 862.3, 585.8)"> </text><text xml:space="preserve" font-family="RobotoSlab-Regular,Roboto Slab" font-size="120.0" fill="#FDA135" transform="matrix(1.00, 0.00, -0.00, -1.00, 892.1, 585.8)">d</text><text xml:space="preserve" font-family="RobotoSlab-Regular,Roboto Slab" font-size="120.0" fill="#FDA135" transform="matrix(1.00, 0.00, -0.00, -1.00, 964.1, 585.8)">i</text><text xml:space="preserve" font-family="RobotoSlab-Regular,Roboto Slab" font-size="120.0" fill="#FDA135" transform="matrix(1.00, 0.00, -0.00, -1.00, 1003.5, 585.8)">s</text><text xml:space="preserve" font-family="RobotoSlab-Regular,Roboto Slab" font-size="120.0" fill="#FDA135" transform="matrix(1.00, 0.00, -0.00, -1.00, 1064.6, 585.8)">t</text><text xml:space="preserve" font-family="RobotoSlab-Regular,Roboto Slab" font-size="120.0" fill="#FDA135" transform="matrix(1.00, 0.00, -0.00, -1.00, 1108.6, 585.8)">r</text><text xml:space="preserve" font-family="RobotoSlab-Regular,Roboto Slab" font-size="120.0" fill="#FDA135" transform="matrix(1.00, 0.00, -0.00, -1.00, 1158.2, 585.8)">i</text><text xml:space="preserve" font-family="RobotoSlab-Regular,Roboto Slab" font-size="120.0" fill="#FDA135" transform="matrix(1.00, 0.00, -0.00, -1.00, 1197.6, 585.8)">b</text><text xml:space="preserve" font-family="RobotoSlab-Regular,Roboto Slab" font-size="120.0" fill="#FDA135" transform="matrix(1.00, 0.00, -0.00, -1.00, 1267.1, 585.8)">u</text><text xml:space="preserve" font-family="RobotoSlab-Regular,Roboto Slab" font-size="120.0" fill="#FDA135" transform="matrix(1.00, 0.00, -0.00, -1.00, 1340.0, 585.8)">i</text><text xml:space="preserve" font-family="RobotoSlab-Regular,Roboto Slab" font-size="120.0" fill="#FDA135" transform="matrix(1.00, 0.00, -0.00, -1.00, 1379.4, 585.8)">d</text><text xml:space="preserve" font-family="RobotoSlab-Regular,Roboto Slab" font-size="120.0" fill="#FDA135" transform="matrix(1.00, 0.00, -0.00, -1.00, 1451.4, 585.8)">o</text><text xml:space="preserve" font-family="RobotoSlab-Regular,Roboto Slab" font-size="120.0" fill="#FDA135" transform="matrix(1.00, 0.00, -0.00, -1.00, 1518.8, 585.8)">s</text><text xml:space="preserve" font-family="RobotoSlab-Regular,Roboto Slab" font-size="120.0" fill="#00AAD1" transform="matrix(1.00, 0.00, -0.00, -1.00, 575.7, 345.2)">E</text><text xml:space="preserve" font-family="RobotoSlab-Regular,Roboto Slab" font-size="120.0" fill="#00AAD1" transform="matrix(1.00, 0.00, -0.00, -1.00, 652.2, 345.2)">s</text><text xml:space="preserve" font-family="RobotoSlab-Regular,Roboto Slab" font-size="120.0" fill="#00AAD1" transform="matrix(1.00, 0.00, -0.00, -1.00, 713.3, 345.2)">c</text><text xml:space="preserve" font-family="RobotoSlab-Regular,Roboto Slab" font-size="120.0" fill="#00AAD1" transform="matrix(1.00, 0.00, -0.00, -1.00, 778.0, 345.2)">a</text><text xml:space="preserve" font-family="RobotoSlab-Regular,Roboto Slab" font-size="120.0" fill="#00AAD1" transform="matrix(1.00, 0.00, -0.00, -1.00, 844.0, 345.2)">l</text><text xml:space="preserve" font-family="RobotoSlab-Regular,Roboto Slab" font-size="120.0" fill="#00AAD1" transform="matrix(1.00, 0.00, -0.00, -1.00, 881.8, 345.2)">a</text><text xml:space="preserve" font-family="RobotoSlab-Regular,Roboto Slab" font-size="120.0" fill="#00AAD1" transform="matrix(1.00, 0.00, -0.00, -1.00, 947.8, 345.2)">b</text><text xml:space="preserve" font-family="RobotoSlab-Regular,Roboto Slab" font-size="120.0" fill="#00AAD1" transform="matrix(1.00, 0.00, -0.00, -1.00, 1017.3, 345.2)">i</text><text xml:space="preserve" font-family="RobotoSlab-Regular,Roboto Slab" font-size="120.0" fill="#00AAD1" transform="matrix(1.00, 0.00, -0.00, -1.00, 1056.7, 345.2)">l</text><text xml:space="preserve" font-family="RobotoSlab-Regular,Roboto Slab" font-size="120.0" fill="#00AAD1" transform="matrix(1.00, 0.00, -0.00, -1.00, 1094.4, 345.2)">i</text><text xml:space="preserve" font-family="RobotoSlab-Regular,Roboto Slab" font-size="120.0" fill="#00AAD1" transform="matrix(1.00, 0.00, -0.00, -1.00, 1133.8, 345.2)">d</text><text xml:space="preserve" font-family="RobotoSlab-Regular,Roboto Slab" font-size="120.0" fill="#00AAD1" transform="matrix(1.00, 0.00, -0.00, -1.00, 1205.8, 345.2)">a</text><text xml:space="preserve" font-family="RobotoSlab-Regular,Roboto Slab" font-size="120.0" fill="#00AAD1" transform="matrix(1.00, 0.00, -0.00, -1.00, 1271.9, 345.2)">d</text></g></svg>