<?xml version="1.0" encoding="UTF-8" standalone="no"?><svg xmlns="http://www.w3.org/2000/svg" xmlns:xlink="http://www.w3.org/1999/xlink" clip-rule="evenodd" stroke-miterlimit="10" viewBox="0 0 646 88"><desc>SVG generated by Keynote</desc><defs></defs><g transform="matrix(1.00, 0.00, -0.00, -1.00, 0.0, 88.0)"><text xml:space="preserve" font-family="Verdana,Verdana" font-size="96.9" fill="#71D141" transform="matrix(1.00, 0.00, -0.00, -1.00, -6.3, 12.4)">@</text><text xml:space="preserve" font-family="Verdana,Verdana" font-size="96.9" fill="#FEFFFF" transform="matrix(1.00, 0.00, -0.00, -1.00, 90.6, 12.4)">N</text><text xml:space="preserve" font-family="Verdana,Verdana" font-size="96.9" fill="#FEFFFF" transform="matrix(1.00, 0.00, -0.00, -1.00, 163.1, 12.4)">o</text><text xml:space="preserve" font-family="Verdana,Verdana" font-size="96.9" fill="#FEFFFF" transform="matrix(1.00, 0.00, -0.00, -1.00, 221.9, 12.4)">d</text><text xml:space="preserve" font-family="Verdana,Verdana" font-size="96.9" fill="#FEFFFF" transform="matrix(1.00, 0.00, -0.00, -1.00, 282.2, 12.4)">e</text><text xml:space="preserve" font-family="Verdana,Verdana" font-size="96.9" fill="#FEFFFF" transform="matrix(1.00, 0.00, -0.00, -1.00, 339.9, 12.4)">r</text><text xml:space="preserve" font-family="Verdana,Verdana" font-size="96.9" fill="#FEFFFF" transform="matrix(1.00, 0.00, -0.00, -1.00, 381.3, 12.4)">s</text><text xml:space="preserve" font-family="Verdana,Verdana" font-size="96.9" fill="#FEFFFF" transform="matrix(1.00, 0.00, -0.00, -1.00, 431.7, 12.4)">C</text><text xml:space="preserve" font-family="Verdana,Verdana" font-size="96.9" fill="#FEFFFF" transform="matrix(1.00, 0.00, -0.00, -1.00, 499.4, 12.4)">a</text><text xml:space="preserve" font-family="Verdana,Verdana" font-size="96.9" fill="#FEFFFF" transform="matrix(1.00, 0.00, -0.00, -1.00, 557.6, 12.4)">s</text><text xml:space="preserve" font-family="Verdana,Verdana" font-size="96.9" fill="#FEFFFF" transform="matrix(1.00, 0.00, -0.00, -1.00, 608.1, 12.4)">t</text></g></svg>