<?xml version="1.0" encoding="UTF-8" standalone="no"?><svg xmlns="http://www.w3.org/2000/svg" xmlns:xlink="http://www.w3.org/1999/xlink" clip-rule="evenodd" stroke-miterlimit="10" viewBox="0 0 1422 475"><desc>SVG generated by Keynote</desc><defs></defs><g transform="matrix(1.00, 0.00, -0.00, -1.00, 0.0, 475.0)"><text xml:space="preserve" font-family="RobotoSlab-Regular,Roboto Slab" font-size="140.0" fill="#83CC29" transform="matrix(1.00, 0.00, -0.00, -1.00, 405.9, 373.5)">M</text><text xml:space="preserve" font-family="RobotoSlab-Regular,Roboto Slab" font-size="140.0" fill="#83CC29" transform="matrix(1.00, 0.00, -0.00, -1.00, 536.1, 373.5)">e</text><text xml:space="preserve" font-family="RobotoSlab-Regular,Roboto Slab" font-size="140.0" fill="#83CC29" transform="matrix(1.00, 0.00, -0.00, -1.00, 611.3, 373.5)">e</text><text xml:space="preserve" font-family="RobotoSlab-Regular,Roboto Slab" font-size="140.0" fill="#83CC29" transform="matrix(1.00, 0.00, -0.00, -1.00, 686.5, 373.5)">t</text><text xml:space="preserve" font-family="RobotoSlab-Regular,Roboto Slab" font-size="140.0" fill="#83CC29" transform="matrix(1.00, 0.00, -0.00, -1.00, 737.7, 373.5)">u</text><text xml:space="preserve" font-family="RobotoSlab-Regular,Roboto Slab" font-size="140.0" fill="#83CC29" transform="matrix(1.00, 0.00, -0.00, -1.00, 822.8, 373.5)">p</text><text xml:space="preserve" font-family="RobotoSlab-Regular,Roboto Slab" font-size="140.0" fill="#83CC29" transform="matrix(1.00, 0.00, -0.00, -1.00, 907.6, 373.5)">s</text><text xml:space="preserve" font-family="RobotoSlab-Regular,Roboto Slab" font-size="140.0" fill="#83CC29" transform="matrix(1.00, 0.00, -0.00, -1.00, 979.0, 373.5)">!</text><text xml:space="preserve" font-family="LucidaGrande,Lucida Grande" font-size="140.0" fill="#83CC29" transform="matrix(1.00, 0.00, -0.00, -1.00, 1012.1, 373.5)">โจ</text><text xml:space="preserve" font-family="RobotoSlab-Bold,Roboto Slab" font-weight="bold" font-size="140.0" fill="#00B9E3" transform="matrix(1.00, 0.00, -0.00, -1.00, -5.0, 3.5)">S</text><text xml:space="preserve" font-family="RobotoSlab-Bold,Roboto Slab" font-weight="bold" font-size="140.0" fill="#00B9E3" transform="matrix(1.00, 0.00, -0.00, -1.00, 79.9, 3.5)">e</text><text xml:space="preserve" font-family="RobotoSlab-Bold,Roboto Slab" font-weight="bold" font-size="140.0" fill="#00B9E3" transform="matrix(1.00, 0.00, -0.00, -1.00, 154.4, 3.5)">m</text><text xml:space="preserve" font-family="RobotoSlab-Bold,Roboto Slab" font-weight="bold" font-size="140.0" fill="#00B9E3" transform="matrix(1.00, 0.00, -0.00, -1.00, 284.7, 3.5)">รก</text><text xml:space="preserve" font-family="RobotoSlab-Bold,Roboto Slab" font-weight="bold" font-size="140.0" fill="#00B9E3" transform="matrix(1.00, 0.00, -0.00, -1.00, 361.6, 3.5)">n</text><text xml:space="preserve" font-family="RobotoSlab-Bold,Roboto Slab" font-weight="bold" font-size="140.0" fill="#00B9E3" transform="matrix(1.00, 0.00, -0.00, -1.00, 450.5, 3.5)">t</text><text xml:space="preserve" font-family="RobotoSlab-Bold,Roboto Slab" font-weight="bold" font-size="140.0" fill="#00B9E3" transform="matrix(1.00, 0.00, -0.00, -1.00, 502.7, 3.5)">i</text><text xml:space="preserve" font-family="RobotoSlab-Bold,Roboto Slab" font-weight="bold" font-size="140.0" fill="#00B9E3" transform="matrix(1.00, 0.00, -0.00, -1.00, 547.9, 3.5)">c</text><text xml:space="preserve" font-family="RobotoSlab-Bold,Roboto Slab" font-weight="bold" font-size="140.0" fill="#00B9E3" transform="matrix(1.00, 0.00, -0.00, -1.00, 621.6, 3.5)">a</text><text xml:space="preserve" font-family="RobotoSlab-Bold,Roboto Slab" font-weight="bold" font-size="140.0" fill="#00B9E3" transform="matrix(1.00, 0.00, -0.00, -1.00, 698.6, 3.5)"> </text><text xml:space="preserve" font-family="RobotoSlab-Bold,Roboto Slab" font-weight="bold" font-size="140.0" fill="#00B9E3" transform="matrix(1.00, 0.00, -0.00, -1.00, 732.9, 3.5)">&gt;</text><text xml:space="preserve" font-family="RobotoSlab-Bold,Roboto Slab" font-weight="bold" font-size="140.0" fill="#00B9E3" transform="matrix(1.00, 0.00, -0.00, -1.00, 803.4, 3.5)"> </text><text xml:space="preserve" font-family="RobotoSlab-Bold,Roboto Slab" font-weight="bold" font-size="140.0" fill="#00B9E3" transform="matrix(1.00, 0.00, -0.00, -1.00, 837.8, 3.5)">0</text><text xml:space="preserve" font-family="RobotoSlab-Bold,Roboto Slab" font-weight="bold" font-size="140.0" fill="#00B9E3" transform="matrix(1.00, 0.00, -0.00, -1.00, 917.8, 3.5)">1</text><text xml:space="preserve" font-family="RobotoSlab-Bold,Roboto Slab" font-weight="bold" font-size="140.0" fill="#00B9E3" transform="matrix(1.00, 0.00, -0.00, -1.00, 979.6, 3.5)">0</text><text xml:space="preserve" font-family="RobotoSlab-Bold,Roboto Slab" font-weight="bold" font-size="140.0" fill="#00B9E3" transform="matrix(1.00, 0.00, -0.00, -1.00, 1059.7, 3.5)">0</text><text xml:space="preserve" font-family="RobotoSlab-Bold,Roboto Slab" font-weight="bold" font-size="140.0" fill="#00B9E3" transform="matrix(1.00, 0.00, -0.00, -1.00, 1139.7, 3.5)">0</text><text xml:space="preserve" font-family="RobotoSlab-Bold,Roboto Slab" font-weight="bold" font-size="140.0" fill="#00B9E3" transform="matrix(1.00, 0.00, -0.00, -1.00, 1219.7, 3.5)">1</text><text xml:space="preserve" font-family="RobotoSlab-Bold,Roboto Slab" font-weight="bold" font-size="140.0" fill="#00B9E3" transform="matrix(1.00, 0.00, -0.00, -1.00, 1281.6, 3.5)">0</text><text xml:space="preserve" font-family="RobotoSlab-Bold,Roboto Slab" font-weight="bold" font-size="140.0" fill="#00B9E3" transform="matrix(1.00, 0.00, -0.00, -1.00, 1361.6, 3.5)">1</text></g></svg>