<?xml version="1.0" encoding="UTF-8" standalone="no"?><svg xmlns="http://www.w3.org/2000/svg" xmlns:xlink="http://www.w3.org/1999/xlink" clip-rule="evenodd" stroke-miterlimit="10" viewBox="0 0 545 97"><desc>SVG generated by Keynote</desc><defs></defs><g transform="matrix(1.00, 0.00, -0.00, -1.00, 0.0, 97.0)"><text xml:space="preserve" font-family="Verdana,Verdana" font-size="96.9" fill="#71D141" transform="matrix(1.00, 0.00, -0.00, -1.00, -6.8, 21.4)">@</text><text xml:space="preserve" font-family="Verdana,Verdana" font-size="96.9" fill="#FEFFFF" transform="matrix(1.00, 0.00, -0.00, -1.00, 90.1, 21.4)">l</text><text xml:space="preserve" font-family="Verdana,Verdana" font-size="96.9" fill="#FEFFFF" transform="matrix(1.00, 0.00, -0.00, -1.00, 116.7, 21.4)">p</text><text xml:space="preserve" font-family="Verdana,Verdana" font-size="96.9" fill="#FEFFFF" transform="matrix(1.00, 0.00, -0.00, -1.00, 177.1, 21.4)">o</text><text xml:space="preserve" font-family="Verdana,Verdana" font-size="96.9" fill="#FEFFFF" transform="matrix(1.00, 0.00, -0.00, -1.00, 235.9, 21.4)">r</text><text xml:space="preserve" font-family="Verdana,Verdana" font-size="96.9" fill="#FEFFFF" transform="matrix(1.00, 0.00, -0.00, -1.00, 277.3, 21.4)">r</text><text xml:space="preserve" font-family="Verdana,Verdana" font-size="96.9" fill="#FEFFFF" transform="matrix(1.00, 0.00, -0.00, -1.00, 316.9, 21.4)">a</text><text xml:space="preserve" font-family="Verdana,Verdana" font-size="96.9" fill="#FEFFFF" transform="matrix(1.00, 0.00, -0.00, -1.00, 375.0, 21.4)">s</text><text xml:space="preserve" font-family="Verdana,Verdana" font-size="96.9" fill="#FEFFFF" transform="matrix(1.00, 0.00, -0.00, -1.00, 425.5, 21.4)">1</text><text xml:space="preserve" font-family="Verdana,Verdana" font-size="96.9" fill="#FEFFFF" transform="matrix(1.00, 0.00, -0.00, -1.00, 487.1, 21.4)">6</text></g></svg>