<?xml version="1.0" encoding="UTF-8" standalone="no"?><svg xmlns="http://www.w3.org/2000/svg" xmlns:xlink="http://www.w3.org/1999/xlink" clip-rule="evenodd" stroke-miterlimit="10" viewBox="0 0 1920 1080"><desc>SVG generated by Keynote</desc><defs><radialGradient id="gradSh1.10" cx="0.0" cy="0.0" r="100.0" fx="0.0" fy="0.0" gradientUnits="userSpaceOnUse" gradientTransform="matrix(9.61, -5.41, -5.41, -9.61, 960.0, 540.0)"><stop offset="0.00000" stop-color="#424242"></stop><stop offset="0.01686" stop-color="#414141"></stop><stop offset="1.00000" stop-color="#020202"></stop></radialGradient></defs><g transform="matrix(1.00, 0.00, -0.00, -1.00, 0.0, 1080.0)"><g><clipPath id="clip0x600001ca58e0"><path d="M 0.0 1080.0 L 1920.0 1080.0 L 1920.0 0.0 L 0.0 0.0 Z M 0.0 1080.0 "></path></clipPath><g clip-path="url(#clip0x600001ca58e0)"><path d="M 0.0 1080.0 L 1920.0 1080.0 L 1920.0 0.0 L 0.0 0.0 Z M 0.0 1080.0 " fill="url(#gradSh1.10)"></path></g></g><text xml:space="preserve" font-family="RobotoSlab-Regular,Roboto Slab" font-size="103.4" fill="#FEFFFF" transform="matrix(1.00, 0.00, -0.00, -1.00, 404.9, 689.8)">U</text><text xml:space="preserve" font-family="RobotoSlab-Regular,Roboto Slab" font-size="103.4" fill="#FEFFFF" transform="matrix(1.00, 0.00, -0.00, -1.00, 482.7, 689.8)">n</text><text xml:space="preserve" font-family="RobotoSlab-Regular,Roboto Slab" font-size="103.4" fill="#FEFFFF" transform="matrix(1.00, 0.00, -0.00, -1.00, 549.2, 689.8)">a</text><text xml:space="preserve" font-family="RobotoSlab-Regular,Roboto Slab" font-size="103.4" fill="#FEFFFF" transform="matrix(1.00, 0.00, -0.00, -1.00, 606.1, 689.8)"> </text><text xml:space="preserve" font-family="RobotoSlab-Regular,Roboto Slab" font-size="103.4" fill="#FEFFFF" transform="matrix(1.00, 0.00, -0.00, -1.00, 631.8, 689.8)">b</text><text xml:space="preserve" font-family="RobotoSlab-Regular,Roboto Slab" font-size="103.4" fill="#FEFFFF" transform="matrix(1.00, 0.00, -0.00, -1.00, 691.7, 689.8)">u</text><text xml:space="preserve" font-family="RobotoSlab-Regular,Roboto Slab" font-size="103.4" fill="#FEFFFF" transform="matrix(1.00, 0.00, -0.00, -1.00, 754.5, 689.8)">e</text><text xml:space="preserve" font-family="RobotoSlab-Regular,Roboto Slab" font-size="103.4" fill="#FEFFFF" transform="matrix(1.00, 0.00, -0.00, -1.00, 810.1, 689.8)">n</text><text xml:space="preserve" font-family="RobotoSlab-Regular,Roboto Slab" font-size="103.4" fill="#FEFFFF" transform="matrix(1.00, 0.00, -0.00, -1.00, 876.6, 689.8)">a</text><text xml:space="preserve" font-family="RobotoSlab-Regular,Roboto Slab" font-size="103.4" fill="#FEFFFF" transform="matrix(1.00, 0.00, -0.00, -1.00, 933.5, 689.8)"> </text><text xml:space="preserve" font-family="RobotoSlab-Regular,Roboto Slab" font-size="103.4" fill="#FEFFFF" transform="matrix(1.00, 0.00, -0.00, -1.00, 959.1, 689.8)">c</text><text xml:space="preserve" font-family="RobotoSlab-Regular,Roboto Slab" font-size="103.4" fill="#FEFFFF" transform="matrix(1.00, 0.00, -0.00, -1.00, 1014.9, 689.8)">o</text><text xml:space="preserve" font-family="RobotoSlab-Regular,Roboto Slab" font-size="103.4" fill="#FEFFFF" transform="matrix(1.00, 0.00, -0.00, -1.00, 1072.9, 689.8)">m</text><text xml:space="preserve" font-family="RobotoSlab-Regular,Roboto Slab" font-size="103.4" fill="#FEFFFF" transform="matrix(1.00, 0.00, -0.00, -1.00, 1170.6, 689.8)">u</text><text xml:space="preserve" font-family="RobotoSlab-Regular,Roboto Slab" font-size="103.4" fill="#FEFFFF" transform="matrix(1.00, 0.00, -0.00, -1.00, 1233.4, 689.8)">n</text><text xml:space="preserve" font-family="RobotoSlab-Regular,Roboto Slab" font-size="103.4" fill="#FEFFFF" transform="matrix(1.00, 0.00, -0.00, -1.00, 1299.9, 689.8)">i</text><text xml:space="preserve" font-family="RobotoSlab-Regular,Roboto Slab" font-size="103.4" fill="#FEFFFF" transform="matrix(1.00, 0.00, -0.00, -1.00, 1333.9, 689.8)">d</text><text xml:space="preserve" font-family="RobotoSlab-Regular,Roboto Slab" font-size="103.4" fill="#FEFFFF" transform="matrix(1.00, 0.00, -0.00, -1.00, 1395.9, 689.8)">a</text><text xml:space="preserve" font-family="RobotoSlab-Regular,Roboto Slab" font-size="103.4" fill="#FEFFFF" transform="matrix(1.00, 0.00, -0.00, -1.00, 1452.9, 689.8)">d</text><text xml:space="preserve" font-family="RobotoSlab-Regular,Roboto Slab" font-size="103.4" fill="#FEFFFF" transform="matrix(1.00, 0.00, -0.00, -1.00, 1514.9, 689.8)"> </text><text xml:space="preserve" font-family="RobotoSlab-Regular,Roboto Slab" font-size="103.4" fill="#FEFFFF" transform="matrix(1.00, 0.00, -0.00, -1.00, 410.9, 553.8)">e</text><text xml:space="preserve" font-family="RobotoSlab-Regular,Roboto Slab" font-size="103.4" fill="#FEFFFF" transform="matrix(1.00, 0.00, -0.00, -1.00, 466.5, 553.8)">s</text><text xml:space="preserve" font-family="RobotoSlab-Regular,Roboto Slab" font-size="103.4" fill="#FEFFFF" transform="matrix(1.00, 0.00, -0.00, -1.00, 519.2, 553.8)"> </text><text xml:space="preserve" font-family="RobotoSlab-Regular,Roboto Slab" font-size="103.4" fill="#FEFFFF" transform="matrix(1.00, 0.00, -0.00, -1.00, 544.8, 553.8)">c</text><text xml:space="preserve" font-family="RobotoSlab-Regular,Roboto Slab" font-size="103.4" fill="#FEFFFF" transform="matrix(1.00, 0.00, -0.00, -1.00, 600.5, 553.8)">o</text><text xml:space="preserve" font-family="RobotoSlab-Regular,Roboto Slab" font-size="103.4" fill="#FEFFFF" transform="matrix(1.00, 0.00, -0.00, -1.00, 658.6, 553.8)">m</text><text xml:space="preserve" font-family="RobotoSlab-Regular,Roboto Slab" font-size="103.4" fill="#FEFFFF" transform="matrix(1.00, 0.00, -0.00, -1.00, 755.7, 553.8)">o</text><text xml:space="preserve" font-family="RobotoSlab-Regular,Roboto Slab" font-size="103.4" fill="#FEFFFF" transform="matrix(1.00, 0.00, -0.00, -1.00, 813.7, 553.8)"> </text><text xml:space="preserve" font-family="RobotoSlab-Regular,Roboto Slab" font-size="103.4" fill="#FEFFFF" transform="matrix(1.00, 0.00, -0.00, -1.00, 839.4, 553.8)">u</text><text xml:space="preserve" font-family="RobotoSlab-Regular,Roboto Slab" font-size="103.4" fill="#FEFFFF" transform="matrix(1.00, 0.00, -0.00, -1.00, 902.2, 553.8)">n</text><text xml:space="preserve" font-family="RobotoSlab-Regular,Roboto Slab" font-size="103.4" fill="#FEFFFF" transform="matrix(1.00, 0.00, -0.00, -1.00, 968.7, 553.8)">a</text><text xml:space="preserve" font-family="RobotoSlab-Regular,Roboto Slab" font-size="103.4" fill="#FEFFFF" transform="matrix(1.00, 0.00, -0.00, -1.00, 1025.7, 553.8)"> </text><text xml:space="preserve" font-family="RobotoSlab-Regular,Roboto Slab" font-size="103.4" fill="#FEFFFF" transform="matrix(1.00, 0.00, -0.00, -1.00, 1051.3, 553.8)">p</text><text xml:space="preserve" font-family="RobotoSlab-Regular,Roboto Slab" font-size="103.4" fill="#FEFFFF" transform="matrix(1.00, 0.00, -0.00, -1.00, 1114.0, 553.8)">i</text><text xml:space="preserve" font-family="RobotoSlab-Regular,Roboto Slab" font-size="103.4" fill="#FEFFFF" transform="matrix(1.00, 0.00, -0.00, -1.00, 1147.9, 553.8)">c</text><text xml:space="preserve" font-family="RobotoSlab-Regular,Roboto Slab" font-size="103.4" fill="#FEFFFF" transform="matrix(1.00, 0.00, -0.00, -1.00, 1203.7, 553.8)">h</text><text xml:space="preserve" font-family="RobotoSlab-Regular,Roboto Slab" font-size="103.4" fill="#FEFFFF" transform="matrix(1.00, 0.00, -0.00, -1.00, 1270.3, 553.8)">a</text><text xml:space="preserve" font-family="RobotoSlab-Regular,Roboto Slab" font-size="103.4" fill="#FEFFFF" transform="matrix(1.00, 0.00, -0.00, -1.00, 1327.3, 553.8)">n</text><text xml:space="preserve" font-family="RobotoSlab-Regular,Roboto Slab" font-size="103.4" fill="#FEFFFF" transform="matrix(1.00, 0.00, -0.00, -1.00, 1393.3, 553.8)">g</text><text xml:space="preserve" font-family="RobotoSlab-Regular,Roboto Slab" font-size="103.4" fill="#FEFFFF" transform="matrix(1.00, 0.00, -0.00, -1.00, 1451.8, 553.8)">a</text><text xml:space="preserve" font-family="RobotoSlab-Regular,Roboto Slab" font-size="103.4" fill="#FEFFFF" transform="matrix(1.00, 0.00, -0.00, -1.00, 1508.7, 553.8)"> </text><text xml:space="preserve" font-family="RobotoSlab-Regular,Roboto Slab" font-size="103.4" fill="#FEFFFF" transform="matrix(1.00, 0.00, -0.00, -1.00, 741.2, 417.8)">d</text><text xml:space="preserve" font-family="RobotoSlab-Regular,Roboto Slab" font-size="103.4" fill="#FEFFFF" transform="matrix(1.00, 0.00, -0.00, -1.00, 803.2, 417.8)">e</text><text xml:space="preserve" font-family="RobotoSlab-Regular,Roboto Slab" font-size="103.4" fill="#FEFFFF" transform="matrix(1.00, 0.00, -0.00, -1.00, 858.7, 417.8)"> </text><text xml:space="preserve" font-family="RobotoSlab-Regular,Roboto Slab" font-size="103.4" fill="#FEFFFF" transform="matrix(1.00, 0.00, -0.00, -1.00, 884.3, 417.8)">b</text><text xml:space="preserve" font-family="RobotoSlab-Regular,Roboto Slab" font-size="103.4" fill="#FEFFFF" transform="matrix(1.00, 0.00, -0.00, -1.00, 944.2, 417.8)">a</text><text xml:space="preserve" font-family="RobotoSlab-Regular,Roboto Slab" font-size="103.4" fill="#FEFFFF" transform="matrix(1.00, 0.00, -0.00, -1.00, 1001.2, 417.8)">r</text><text xml:space="preserve" font-family="RobotoSlab-Regular,Roboto Slab" font-size="103.4" fill="#FEFFFF" transform="matrix(1.00, 0.00, -0.00, -1.00, 1043.8, 417.8)">r</text><text xml:space="preserve" font-family="RobotoSlab-Regular,Roboto Slab" font-size="103.4" fill="#FEFFFF" transform="matrix(1.00, 0.00, -0.00, -1.00, 1086.5, 417.8)">i</text><text xml:space="preserve" font-family="RobotoSlab-Regular,Roboto Slab" font-size="103.4" fill="#FEFFFF" transform="matrix(1.00, 0.00, -0.00, -1.00, 1120.4, 417.8)">o</text><text xml:space="preserve" font-family="Harrington,Harrington" font-size="500.0" fill="#00AAD1" transform="matrix(1.00, 0.00, -0.00, -1.00, 861.4, 569.0)">“</text><text xml:space="preserve" font-family="Harrington,Harrington" font-size="500.0" fill="#00AAD1" transform="matrix(1.00, 0.00, -0.00, -1.00, 861.4, -6.5)">”</text><text xml:space="preserve" font-family="RobotoSlab-Regular,Roboto Slab" font-size="80.0" fill="#FEFFFF" transform="matrix(1.00, 0.00, -0.00, -1.00, 1421.9, 96.6)">-</text><text xml:space="preserve" font-family="RobotoSlab-Regular,Roboto Slab" font-size="80.0" fill="#FEFFFF" transform="matrix(1.00, 0.00, -0.00, -1.00, 1453.0, 96.6)"> </text><text xml:space="preserve" font-family="RobotoSlab-Regular,Roboto Slab" font-size="80.0" fill="#FEFFFF" transform="matrix(1.00, 0.00, -0.00, -1.00, 1472.8, 96.6)">y</text><text xml:space="preserve" font-family="RobotoSlab-Regular,Roboto Slab" font-size="80.0" fill="#FEFFFF" transform="matrix(1.00, 0.00, -0.00, -1.00, 1517.7, 96.6)">o</text></g></svg>