<?xml version="1.0" encoding="UTF-8" standalone="no"?><svg xmlns="http://www.w3.org/2000/svg" xmlns:xlink="http://www.w3.org/1999/xlink" clip-rule="evenodd" stroke-miterlimit="10" viewBox="0 0 1920 1080"><desc>SVG generated by Keynote</desc><defs></defs><g transform="matrix(1.00, 0.00, -0.00, -1.00, 0.0, 1080.0)"><path d="M 0.0 1080.0 L 1920.0 1080.0 L 1920.0 0.0 L 0.0 0.0 Z M 0.0 1080.0 " fill="#00AAD1"></path><text xml:space="preserve" font-family="Verdana,Verdana" font-size="190.0" fill="#FEFFFF" transform="matrix(1.00, 0.00, -0.00, -1.00, 422.8, 464.4)">F</text><text xml:space="preserve" font-family="Verdana,Verdana" font-size="190.0" fill="#FEFFFF" transform="matrix(1.00, 0.00, -0.00, -1.00, 522.7, 464.4)">a</text><text xml:space="preserve" font-family="Verdana,Verdana" font-size="190.0" fill="#FEFFFF" transform="matrix(1.00, 0.00, -0.00, -1.00, 636.7, 464.4)">n</text><text xml:space="preserve" font-family="Verdana,Verdana" font-size="190.0" fill="#FEFFFF" transform="matrix(1.00, 0.00, -0.00, -1.00, 756.9, 464.4)">-</text><text xml:space="preserve" font-family="Verdana,Verdana" font-size="190.0" fill="#FEFFFF" transform="matrix(1.00, 0.00, -0.00, -1.00, 838.6, 464.4)">A</text><text xml:space="preserve" font-family="Verdana,Verdana" font-size="190.0" fill="#FEFFFF" transform="matrix(1.00, 0.00, -0.00, -1.00, 968.4, 464.4)">r</text><text xml:space="preserve" font-family="Verdana,Verdana" font-size="190.0" fill="#FEFFFF" transform="matrix(1.00, 0.00, -0.00, -1.00, 1049.4, 464.4)">q</text><text xml:space="preserve" font-family="Verdana,Verdana" font-size="190.0" fill="#FEFFFF" transform="matrix(1.00, 0.00, -0.00, -1.00, 1167.8, 464.4)">u</text><text xml:space="preserve" font-family="Verdana,Verdana" font-size="190.0" fill="#FEFFFF" transform="matrix(1.00, 0.00, -0.00, -1.00, 1288.0, 464.4)">í</text><text xml:space="preserve" font-family="Verdana,Verdana" font-size="190.0" fill="#FEFFFF" transform="matrix(1.00, 0.00, -0.00, -1.00, 1340.2, 464.4)">a</text></g></svg>