<?xml version="1.0" encoding="UTF-8" standalone="no"?><svg xmlns="http://www.w3.org/2000/svg" xmlns:xlink="http://www.w3.org/1999/xlink" clip-rule="evenodd" stroke-miterlimit="10" viewBox="0 0 436 104"><desc>SVG generated by Keynote</desc><defs></defs><g transform="matrix(1.00, 0.00, -0.00, -1.00, 0.0, 104.0)"><text xml:space="preserve" font-family="RobotoSlab-Regular,Roboto Slab" font-size="103.4" fill="#FEFFFF" transform="matrix(1.00, 0.00, -0.00, -1.00, -2.9, 24.0)">o</text><text xml:space="preserve" font-family="RobotoSlab-Regular,Roboto Slab" font-size="103.4" fill="#FEFFFF" transform="matrix(1.00, 0.00, -0.00, -1.00, 55.1, 24.0)">b</text><text xml:space="preserve" font-family="RobotoSlab-Regular,Roboto Slab" font-size="103.4" fill="#FEFFFF" transform="matrix(1.00, 0.00, -0.00, -1.00, 115.0, 24.0)">j</text><text xml:space="preserve" font-family="RobotoSlab-Regular,Roboto Slab" font-size="103.4" fill="#FEFFFF" transform="matrix(1.00, 0.00, -0.00, -1.00, 143.8, 24.0)">e</text><text xml:space="preserve" font-family="RobotoSlab-Regular,Roboto Slab" font-size="103.4" fill="#FEFFFF" transform="matrix(1.00, 0.00, -0.00, -1.00, 199.3, 24.0)">t</text><text xml:space="preserve" font-family="RobotoSlab-Regular,Roboto Slab" font-size="103.4" fill="#FEFFFF" transform="matrix(1.00, 0.00, -0.00, -1.00, 237.2, 24.0)">i</text><text xml:space="preserve" font-family="RobotoSlab-Regular,Roboto Slab" font-size="103.4" fill="#FEFFFF" transform="matrix(1.00, 0.00, -0.00, -1.00, 271.2, 24.0)">v</text><text xml:space="preserve" font-family="RobotoSlab-Regular,Roboto Slab" font-size="103.4" fill="#FEFFFF" transform="matrix(1.00, 0.00, -0.00, -1.00, 328.1, 24.0)">o</text><text xml:space="preserve" font-family="RobotoSlab-Regular,Roboto Slab" font-size="103.4" fill="#FEFFFF" transform="matrix(1.00, 0.00, -0.00, -1.00, 386.1, 24.0)">s</text></g></svg>