<?xml version="1.0" encoding="UTF-8" standalone="no"?><svg xmlns="http://www.w3.org/2000/svg" xmlns:xlink="http://www.w3.org/1999/xlink" clip-rule="evenodd" stroke-miterlimit="10" viewBox="0 0 1920 1080"><desc>SVG generated by Keynote</desc><defs><radialGradient id="gradSh1.12" cx="0.0" cy="0.0" r="100.0" fx="0.0" fy="0.0" gradientUnits="userSpaceOnUse" gradientTransform="matrix(9.61, -5.41, -5.41, -9.61, 960.0, 540.0)"><stop offset="0.00000" stop-color="#424242"></stop><stop offset="0.01686" stop-color="#414141"></stop><stop offset="1.00000" stop-color="#020202"></stop></radialGradient></defs><g transform="matrix(1.00, 0.00, -0.00, -1.00, 0.0, 1080.0)"><g><clipPath id="clip0x6180012a6f60"><path d="M 0.0 1080.0 L 1920.0 1080.0 L 1920.0 0.0 L 0.0 0.0 Z M 0.0 1080.0 "></path></clipPath><g clip-path="url(#clip0x6180012a6f60)"><path d="M 0.0 1080.0 L 1920.0 1080.0 L 1920.0 0.0 L 0.0 0.0 Z M 0.0 1080.0 " fill="url(#gradSh1.12)"></path></g></g><text xml:space="preserve" font-family="RobotoSlab-Regular,Roboto Slab" font-size="103.4" fill="#FEFFFF" transform="matrix(1.00, 0.00, -0.00, -1.00, 395.7, 689.8)">A</text><text xml:space="preserve" font-family="RobotoSlab-Regular,Roboto Slab" font-size="103.4" fill="#FEFFFF" transform="matrix(1.00, 0.00, -0.00, -1.00, 471.5, 689.8)">n</text><text xml:space="preserve" font-family="RobotoSlab-Regular,Roboto Slab" font-size="103.4" fill="#FEFFFF" transform="matrix(1.00, 0.00, -0.00, -1.00, 538.0, 689.8)">t</text><text xml:space="preserve" font-family="RobotoSlab-Regular,Roboto Slab" font-size="103.4" fill="#FEFFFF" transform="matrix(1.00, 0.00, -0.00, -1.00, 575.9, 689.8)">e</text><text xml:space="preserve" font-family="RobotoSlab-Regular,Roboto Slab" font-size="103.4" fill="#FEFFFF" transform="matrix(1.00, 0.00, -0.00, -1.00, 631.4, 689.8)">s</text><text xml:space="preserve" font-family="RobotoSlab-Regular,Roboto Slab" font-size="103.4" fill="#FEFFFF" transform="matrix(1.00, 0.00, -0.00, -1.00, 684.1, 689.8)"> </text><text xml:space="preserve" font-family="RobotoSlab-Regular,Roboto Slab" font-size="103.4" fill="#FEFFFF" transform="matrix(1.00, 0.00, -0.00, -1.00, 709.8, 689.8)">d</text><text xml:space="preserve" font-family="RobotoSlab-Regular,Roboto Slab" font-size="103.4" fill="#FEFFFF" transform="matrix(1.00, 0.00, -0.00, -1.00, 771.8, 689.8)">e</text><text xml:space="preserve" font-family="RobotoSlab-Regular,Roboto Slab" font-size="103.4" fill="#FEFFFF" transform="matrix(1.00, 0.00, -0.00, -1.00, 827.4, 689.8)"> </text><text xml:space="preserve" font-family="RobotoSlab-Regular,Roboto Slab" font-size="103.4" fill="#FEFFFF" transform="matrix(1.00, 0.00, -0.00, -1.00, 853.0, 689.8)">q</text><text xml:space="preserve" font-family="RobotoSlab-Regular,Roboto Slab" font-size="103.4" fill="#FEFFFF" transform="matrix(1.00, 0.00, -0.00, -1.00, 911.3, 689.8)">u</text><text xml:space="preserve" font-family="RobotoSlab-Regular,Roboto Slab" font-size="103.4" fill="#FEFFFF" transform="matrix(1.00, 0.00, -0.00, -1.00, 974.2, 689.8)">e</text><text xml:space="preserve" font-family="RobotoSlab-Regular,Roboto Slab" font-size="103.4" fill="#FEFFFF" transform="matrix(1.00, 0.00, -0.00, -1.00, 1029.7, 689.8)">j</text><text xml:space="preserve" font-family="RobotoSlab-Regular,Roboto Slab" font-size="103.4" fill="#FEFFFF" transform="matrix(1.00, 0.00, -0.00, -1.00, 1058.5, 689.8)">a</text><text xml:space="preserve" font-family="RobotoSlab-Regular,Roboto Slab" font-size="103.4" fill="#FEFFFF" transform="matrix(1.00, 0.00, -0.00, -1.00, 1115.5, 689.8)">r</text><text xml:space="preserve" font-family="RobotoSlab-Regular,Roboto Slab" font-size="103.4" fill="#FEFFFF" transform="matrix(1.00, 0.00, -0.00, -1.00, 1158.2, 689.8)">n</text><text xml:space="preserve" font-family="RobotoSlab-Regular,Roboto Slab" font-size="103.4" fill="#FEFFFF" transform="matrix(1.00, 0.00, -0.00, -1.00, 1224.2, 689.8)">o</text><text xml:space="preserve" font-family="RobotoSlab-Regular,Roboto Slab" font-size="103.4" fill="#FEFFFF" transform="matrix(1.00, 0.00, -0.00, -1.00, 1282.2, 689.8)">s</text><text xml:space="preserve" font-family="RobotoSlab-Regular,Roboto Slab" font-size="103.4" fill="#FEFFFF" transform="matrix(1.00, 0.00, -0.00, -1.00, 1334.9, 689.8)"> </text><text xml:space="preserve" font-family="RobotoSlab-Regular,Roboto Slab" font-size="103.4" fill="#FEFFFF" transform="matrix(1.00, 0.00, -0.00, -1.00, 1360.5, 689.8)">p</text><text xml:space="preserve" font-family="RobotoSlab-Regular,Roboto Slab" font-size="103.4" fill="#FEFFFF" transform="matrix(1.00, 0.00, -0.00, -1.00, 1423.2, 689.8)">o</text><text xml:space="preserve" font-family="RobotoSlab-Regular,Roboto Slab" font-size="103.4" fill="#FEFFFF" transform="matrix(1.00, 0.00, -0.00, -1.00, 1481.2, 689.8)">r</text><text xml:space="preserve" font-family="RobotoSlab-Regular,Roboto Slab" font-size="103.4" fill="#FEFFFF" transform="matrix(1.00, 0.00, -0.00, -1.00, 1523.9, 689.8)"> </text><text xml:space="preserve" font-family="RobotoSlab-Regular,Roboto Slab" font-size="103.4" fill="#FEFFFF" transform="matrix(1.00, 0.00, -0.00, -1.00, 425.0, 553.8)">a</text><text xml:space="preserve" font-family="RobotoSlab-Regular,Roboto Slab" font-size="103.4" fill="#FEFFFF" transform="matrix(1.00, 0.00, -0.00, -1.00, 481.9, 553.8)">l</text><text xml:space="preserve" font-family="RobotoSlab-Regular,Roboto Slab" font-size="103.4" fill="#FEFFFF" transform="matrix(1.00, 0.00, -0.00, -1.00, 514.0, 553.8)">g</text><text xml:space="preserve" font-family="RobotoSlab-Regular,Roboto Slab" font-size="103.4" fill="#FEFFFF" transform="matrix(1.00, 0.00, -0.00, -1.00, 572.5, 553.8)">o</text><text xml:space="preserve" font-family="RobotoSlab-Regular,Roboto Slab" font-size="103.4" fill="#FEFFFF" transform="matrix(1.00, 0.00, -0.00, -1.00, 630.5, 553.8)">,</text><text xml:space="preserve" font-family="RobotoSlab-Regular,Roboto Slab" font-size="103.4" fill="#FEFFFF" transform="matrix(1.00, 0.00, -0.00, -1.00, 650.9, 553.8)"> </text><text xml:space="preserve" font-family="RobotoSlab-Regular,Roboto Slab" font-size="103.4" fill="#FEFFFF" transform="matrix(1.00, 0.00, -0.00, -1.00, 676.6, 553.8)">h</text><text xml:space="preserve" font-family="RobotoSlab-Regular,Roboto Slab" font-size="103.4" fill="#FEFFFF" transform="matrix(1.00, 0.00, -0.00, -1.00, 743.3, 553.8)">a</text><text xml:space="preserve" font-family="RobotoSlab-Regular,Roboto Slab" font-size="103.4" fill="#FEFFFF" transform="matrix(1.00, 0.00, -0.00, -1.00, 800.2, 553.8)">g</text><text xml:space="preserve" font-family="RobotoSlab-Regular,Roboto Slab" font-size="103.4" fill="#FEFFFF" transform="matrix(1.00, 0.00, -0.00, -1.00, 858.7, 553.8)">a</text><text xml:space="preserve" font-family="RobotoSlab-Regular,Roboto Slab" font-size="103.4" fill="#FEFFFF" transform="matrix(1.00, 0.00, -0.00, -1.00, 915.6, 553.8)">m</text><text xml:space="preserve" font-family="RobotoSlab-Regular,Roboto Slab" font-size="103.4" fill="#FEFFFF" transform="matrix(1.00, 0.00, -0.00, -1.00, 1012.8, 553.8)">o</text><text xml:space="preserve" font-family="RobotoSlab-Regular,Roboto Slab" font-size="103.4" fill="#FEFFFF" transform="matrix(1.00, 0.00, -0.00, -1.00, 1070.8, 553.8)">s</text><text xml:space="preserve" font-family="RobotoSlab-Regular,Roboto Slab" font-size="103.4" fill="#FEFFFF" transform="matrix(1.00, 0.00, -0.00, -1.00, 1123.5, 553.8)"> </text><text xml:space="preserve" font-family="RobotoSlab-Regular,Roboto Slab" font-size="103.4" fill="#FEFFFF" transform="matrix(1.00, 0.00, -0.00, -1.00, 1149.2, 553.8)">u</text><text xml:space="preserve" font-family="RobotoSlab-Regular,Roboto Slab" font-size="103.4" fill="#FEFFFF" transform="matrix(1.00, 0.00, -0.00, -1.00, 1212.0, 553.8)">n</text><text xml:space="preserve" font-family="RobotoSlab-Regular,Roboto Slab" font-size="103.4" fill="#FEFFFF" transform="matrix(1.00, 0.00, -0.00, -1.00, 1278.5, 553.8)"> </text><text xml:space="preserve" font-family="RobotoSlab-Regular,Roboto Slab" font-size="103.4" fill="#FEFFFF" transform="matrix(1.00, 0.00, -0.00, -1.00, 1304.2, 553.8)">p</text><text xml:space="preserve" font-family="RobotoSlab-Regular,Roboto Slab" font-size="103.4" fill="#FEFFFF" transform="matrix(1.00, 0.00, -0.00, -1.00, 1366.8, 553.8)">u</text><text xml:space="preserve" font-family="RobotoSlab-Regular,Roboto Slab" font-size="103.4" fill="#FEFFFF" transform="matrix(1.00, 0.00, -0.00, -1.00, 1429.7, 553.8)">l</text><text xml:space="preserve" font-family="RobotoSlab-Regular,Roboto Slab" font-size="103.4" fill="#FEFFFF" transform="matrix(1.00, 0.00, -0.00, -1.00, 1462.2, 553.8)">l</text><text xml:space="preserve" font-family="RobotoSlab-Regular,Roboto Slab" font-size="103.4" fill="#FEFFFF" transform="matrix(1.00, 0.00, -0.00, -1.00, 1494.8, 553.8)"> </text><text xml:space="preserve" font-family="RobotoSlab-Regular,Roboto Slab" font-size="103.4" fill="#FEFFFF" transform="matrix(1.00, 0.00, -0.00, -1.00, 777.7, 417.8)">r</text><text xml:space="preserve" font-family="RobotoSlab-Regular,Roboto Slab" font-size="103.4" fill="#FEFFFF" transform="matrix(1.00, 0.00, -0.00, -1.00, 819.4, 417.8)">e</text><text xml:space="preserve" font-family="RobotoSlab-Regular,Roboto Slab" font-size="103.4" fill="#FEFFFF" transform="matrix(1.00, 0.00, -0.00, -1.00, 875.0, 417.8)">q</text><text xml:space="preserve" font-family="RobotoSlab-Regular,Roboto Slab" font-size="103.4" fill="#FEFFFF" transform="matrix(1.00, 0.00, -0.00, -1.00, 933.3, 417.8)">u</text><text xml:space="preserve" font-family="RobotoSlab-Regular,Roboto Slab" font-size="103.4" fill="#FEFFFF" transform="matrix(1.00, 0.00, -0.00, -1.00, 996.1, 417.8)">e</text><text xml:space="preserve" font-family="RobotoSlab-Regular,Roboto Slab" font-size="103.4" fill="#FEFFFF" transform="matrix(1.00, 0.00, -0.00, -1.00, 1051.7, 417.8)">s</text><text xml:space="preserve" font-family="RobotoSlab-Regular,Roboto Slab" font-size="103.4" fill="#FEFFFF" transform="matrix(1.00, 0.00, -0.00, -1.00, 1104.4, 417.8)">t</text><text xml:space="preserve" font-family="Harrington,Harrington" font-size="500.0" fill="#00AAD1" transform="matrix(1.00, 0.00, -0.00, -1.00, 861.4, 569.0)">“</text><text xml:space="preserve" font-family="Harrington,Harrington" font-size="500.0" fill="#00AAD1" transform="matrix(1.00, 0.00, -0.00, -1.00, 861.4, -6.5)">”</text><text xml:space="preserve" font-family="Helvetica-Light,Helvetica" font-size="50.0" fill="#FEFFFF" transform="matrix(1.00, 0.00, -0.00, -1.00, 520.2, 89.5)">R</text><text xml:space="preserve" font-family="Helvetica-Light,Helvetica" font-size="50.0" fill="#FEFFFF" transform="matrix(1.00, 0.00, -0.00, -1.00, 553.5, 89.5)">o</text><text xml:space="preserve" font-family="Helvetica-Light,Helvetica" font-size="50.0" fill="#FEFFFF" transform="matrix(1.00, 0.00, -0.00, -1.00, 581.3, 89.5)">b</text><text xml:space="preserve" font-family="Helvetica-Light,Helvetica" font-size="50.0" fill="#FEFFFF" transform="matrix(1.00, 0.00, -0.00, -1.00, 611.9, 89.5)">a</text><text xml:space="preserve" font-family="Helvetica-Light,Helvetica" font-size="50.0" fill="#FEFFFF" transform="matrix(1.00, 0.00, -0.00, -1.00, 639.7, 89.5)">d</text><text xml:space="preserve" font-family="Helvetica-Light,Helvetica" font-size="50.0" fill="#FEFFFF" transform="matrix(1.00, 0.00, -0.00, -1.00, 670.2, 89.5)">o</text><text xml:space="preserve" font-family="Helvetica-Light,Helvetica" font-size="50.0" fill="#FEFFFF" transform="matrix(1.00, 0.00, -0.00, -1.00, 698.0, 89.5)"> </text><text xml:space="preserve" font-family="Helvetica-Light,Helvetica" font-size="50.0" fill="#FEFFFF" transform="matrix(1.00, 0.00, -0.00, -1.00, 711.9, 89.5)">c</text><text xml:space="preserve" font-family="Helvetica-Light,Helvetica" font-size="50.0" fill="#FEFFFF" transform="matrix(1.00, 0.00, -0.00, -1.00, 739.7, 89.5)">o</text><text xml:space="preserve" font-family="Helvetica-Light,Helvetica" font-size="50.0" fill="#FEFFFF" transform="matrix(1.00, 0.00, -0.00, -1.00, 767.5, 89.5)">n</text><text xml:space="preserve" font-family="Helvetica-Light,Helvetica" font-size="50.0" fill="#FEFFFF" transform="matrix(1.00, 0.00, -0.00, -1.00, 795.3, 89.5)"> </text><text xml:space="preserve" font-family="Helvetica-Light,Helvetica" font-size="50.0" fill="#FF2700" transform="matrix(1.00, 0.00, -0.00, -1.00, 809.2, 89.5)">&lt;</text><text xml:space="preserve" font-family="Helvetica-Light,Helvetica" font-size="50.0" fill="#FF2700" transform="matrix(1.00, 0.00, -0.00, -1.00, 842.2, 89.5)">3</text><text xml:space="preserve" font-family="Helvetica-Light,Helvetica" font-size="50.0" fill="#FEFFFF" transform="matrix(1.00, 0.00, -0.00, -1.00, 870.0, 89.5)"> </text><text xml:space="preserve" font-family="Helvetica-Light,Helvetica" font-size="50.0" fill="#FEFFFF" transform="matrix(1.00, 0.00, -0.00, -1.00, 883.9, 89.5)">a</text><text xml:space="preserve" font-family="Helvetica-Light,Helvetica" font-size="50.0" fill="#FEFFFF" transform="matrix(1.00, 0.00, -0.00, -1.00, 911.7, 89.5)"> </text><text xml:space="preserve" font-family="Helvetica-Light,Helvetica" font-size="50.0" fill="#FEFFFF" transform="matrix(1.00, 0.00, -0.00, -1.00, 925.6, 89.5)">S</text><text xml:space="preserve" font-family="Helvetica-Light,Helvetica" font-size="50.0" fill="#FEFFFF" transform="matrix(1.00, 0.00, -0.00, -1.00, 956.2, 89.5)">h</text><text xml:space="preserve" font-family="Helvetica-Light,Helvetica" font-size="50.0" fill="#FEFFFF" transform="matrix(1.00, 0.00, -0.00, -1.00, 984.0, 89.5)">a</text><text xml:space="preserve" font-family="Helvetica-Light,Helvetica" font-size="50.0" fill="#FEFFFF" transform="matrix(1.00, 0.00, -0.00, -1.00, 1011.8, 89.5)">i</text><text xml:space="preserve" font-family="Helvetica-Light,Helvetica" font-size="50.0" fill="#FEFFFF" transform="matrix(1.00, 0.00, -0.00, -1.00, 1022.9, 89.5)"> </text><text xml:space="preserve" font-family="Helvetica-Light,Helvetica" font-size="50.0" fill="#FEFFFF" transform="matrix(1.00, 0.00, -0.00, -1.00, 1036.8, 89.5)">R</text><text xml:space="preserve" font-family="Helvetica-Light,Helvetica" font-size="50.0" fill="#FEFFFF" transform="matrix(1.00, 0.00, -0.00, -1.00, 1070.1, 89.5)">e</text><text xml:space="preserve" font-family="Helvetica-Light,Helvetica" font-size="50.0" fill="#FEFFFF" transform="matrix(1.00, 0.00, -0.00, -1.00, 1097.9, 89.5)">z</text><text xml:space="preserve" font-family="Helvetica-Light,Helvetica" font-size="50.0" fill="#FEFFFF" transform="matrix(1.00, 0.00, -0.00, -1.00, 1122.9, 89.5)">n</text><text xml:space="preserve" font-family="Helvetica-Light,Helvetica" font-size="50.0" fill="#FEFFFF" transform="matrix(1.00, 0.00, -0.00, -1.00, 1150.7, 89.5)">i</text><text xml:space="preserve" font-family="Helvetica-Light,Helvetica" font-size="50.0" fill="#FEFFFF" transform="matrix(1.00, 0.00, -0.00, -1.00, 1161.8, 89.5)">k</text><text xml:space="preserve" font-family="Helvetica-Light,Helvetica" font-size="50.0" fill="#FEFFFF" transform="matrix(1.00, 0.00, -0.00, -1.00, 1186.8, 89.5)"> </text><text xml:space="preserve" font-family="Helvetica-Light,Helvetica" font-size="50.0" fill="#FEFFFF" transform="matrix(1.00, 0.00, -0.00, -1.00, 1200.7, 89.5)">-</text><text xml:space="preserve" font-family="Helvetica-Light,Helvetica" font-size="50.0" fill="#FEFFFF" transform="matrix(1.00, 0.00, -0.00, -1.00, 1217.4, 89.5)"> </text><text xml:space="preserve" font-family="Helvetica-Light,Helvetica" font-size="50.0" fill="#FEFFFF" transform="matrix(1.00, 0.00, -0.00, -1.00, 1231.3, 89.5)">H</text><text xml:space="preserve" font-family="Helvetica-Light,Helvetica" font-size="50.0" fill="#FEFFFF" transform="matrix(1.00, 0.00, -0.00, -1.00, 1267.4, 89.5)">i</text><text xml:space="preserve" font-family="Helvetica-Light,Helvetica" font-size="50.0" fill="#FEFFFF" transform="matrix(1.00, 0.00, -0.00, -1.00, 1278.5, 89.5)">r</text><text xml:space="preserve" font-family="Helvetica-Light,Helvetica" font-size="50.0" fill="#FEFFFF" transform="matrix(1.00, 0.00, -0.00, -1.00, 1294.2, 89.5)">e</text><text xml:space="preserve" font-family="Helvetica-Light,Helvetica" font-size="50.0" fill="#FEFFFF" transform="matrix(1.00, 0.00, -0.00, -1.00, 1322.0, 89.5)">z</text><text xml:space="preserve" font-family="Helvetica-Light,Helvetica" font-size="50.0" fill="#FEFFFF" transform="matrix(1.00, 0.00, -0.00, -1.00, 1347.0, 89.5)">.</text><text xml:space="preserve" font-family="Helvetica-Light,Helvetica" font-size="50.0" fill="#FEFFFF" transform="matrix(1.00, 0.00, -0.00, -1.00, 1360.9, 89.5)">i</text><text xml:space="preserve" font-family="Helvetica-Light,Helvetica" font-size="50.0" fill="#FEFFFF" transform="matrix(1.00, 0.00, -0.00, -1.00, 1372.0, 89.5)">o</text></g></svg>