<?xml version="1.0" encoding="UTF-8" standalone="no"?><svg xmlns="http://www.w3.org/2000/svg" xmlns:xlink="http://www.w3.org/1999/xlink" clip-rule="evenodd" stroke-miterlimit="10" viewBox="0 0 1920 1080"><desc>SVG generated by Keynote</desc><defs></defs><g transform="matrix(1.00, 0.00, -0.00, -1.00, 0.0, 1080.0)"><path d="M 0.0 1080.0 L 1920.0 1080.0 L 1920.0 0.0 L 0.0 0.0 Z M 0.0 1080.0 " fill="#353535"></path><image xlink:href="../../FF05A121-DB60-4C7B-B667-4DE3C4D22FDE/assets/B16999B494BF6601211F46724FEDC0DF.png" width="3000.00" height="1892.00" transform="matrix(0.65, 0.00, -0.00, -0.65, -9.0, 1151.0)"></image><image xlink:href="../../FF05A121-DB60-4C7B-B667-4DE3C4D22FDE/assets/5CB1FC6C8B972F6E7758CC6506D04B25.png" width="1043.00" height="223.00" transform="matrix(1.00, 0.00, -0.00, -1.00, 127.0, 954.0)"></image><text xml:space="preserve" font-family="RobotoSlab-Regular,Roboto Slab" font-size="112.0" fill="#FEFFFF" transform="matrix(1.00, 0.00, -0.00, -1.00, 194.6, 824.9)">U</text><text xml:space="preserve" font-family="RobotoSlab-Regular,Roboto Slab" font-size="112.0" fill="#FEFFFF" transform="matrix(1.00, 0.00, -0.00, -1.00, 278.9, 824.9)">N</text><text xml:space="preserve" font-family="RobotoSlab-Regular,Roboto Slab" font-size="112.0" fill="#FEFFFF" transform="matrix(1.00, 0.00, -0.00, -1.00, 364.1, 824.9)">I</text><text xml:space="preserve" font-family="RobotoSlab-Regular,Roboto Slab" font-size="112.0" fill="#FEFFFF" transform="matrix(1.00, 0.00, -0.00, -1.00, 400.4, 824.9)">V</text><text xml:space="preserve" font-family="RobotoSlab-Regular,Roboto Slab" font-size="112.0" fill="#FEFFFF" transform="matrix(1.00, 0.00, -0.00, -1.00, 480.7, 824.9)">E</text><text xml:space="preserve" font-family="RobotoSlab-Regular,Roboto Slab" font-size="112.0" fill="#FEFFFF" transform="matrix(1.00, 0.00, -0.00, -1.00, 552.1, 824.9)">R</text><text xml:space="preserve" font-family="RobotoSlab-Regular,Roboto Slab" font-size="112.0" fill="#FEFFFF" transform="matrix(1.00, 0.00, -0.00, -1.00, 627.8, 824.9)">S</text><text xml:space="preserve" font-family="RobotoSlab-Regular,Roboto Slab" font-size="112.0" fill="#FEFFFF" transform="matrix(1.00, 0.00, -0.00, -1.00, 695.9, 824.9)">I</text><text xml:space="preserve" font-family="RobotoSlab-Regular,Roboto Slab" font-size="112.0" fill="#FEFFFF" transform="matrix(1.00, 0.00, -0.00, -1.00, 732.2, 824.9)">D</text><text xml:space="preserve" font-family="RobotoSlab-Regular,Roboto Slab" font-size="112.0" fill="#FEFFFF" transform="matrix(1.00, 0.00, -0.00, -1.00, 805.3, 824.9)">A</text><text xml:space="preserve" font-family="RobotoSlab-Regular,Roboto Slab" font-size="112.0" fill="#FEFFFF" transform="matrix(1.00, 0.00, -0.00, -1.00, 887.4, 824.9)">D</text><text xml:space="preserve" font-family="RobotoSlab-Regular,Roboto Slab" font-size="112.0" fill="#FEFFFF" transform="matrix(1.00, 0.00, -0.00, -1.00, 965.0, 824.9)">E</text><text xml:space="preserve" font-family="RobotoSlab-Regular,Roboto Slab" font-size="112.0" fill="#FEFFFF" transform="matrix(1.00, 0.00, -0.00, -1.00, 1036.3, 824.9)">S</text></g></svg>