<?xml version="1.0" encoding="UTF-8" standalone="no"?><svg xmlns="http://www.w3.org/2000/svg" xmlns:xlink="http://www.w3.org/1999/xlink" clip-rule="evenodd" stroke-miterlimit="10" viewBox="0 0 1920 1080"><desc>SVG generated by Keynote</desc><defs><radialGradient id="gradSh1.7" cx="0.0" cy="0.0" r="100.0" fx="0.0" fy="0.0" gradientUnits="userSpaceOnUse" gradientTransform="matrix(9.61, -5.41, -5.41, -9.61, 960.0, 540.0)"><stop offset="0.00000" stop-color="#424242"></stop><stop offset="0.01686" stop-color="#414141"></stop><stop offset="1.00000" stop-color="#020202"></stop></radialGradient></defs><g transform="matrix(1.00, 0.00, -0.00, -1.00, 0.0, 1080.0)"><g><clipPath id="clip0x6100012abdc0"><path d="M 0.0 1080.0 L 1920.0 1080.0 L 1920.0 0.0 L 0.0 0.0 Z M 0.0 1080.0 "></path></clipPath><g clip-path="url(#clip0x6100012abdc0)"><path d="M 0.0 1080.0 L 1920.0 1080.0 L 1920.0 0.0 L 0.0 0.0 Z M 0.0 1080.0 " fill="url(#gradSh1.7)"></path></g></g><text xml:space="preserve" font-family="RobotoSlab-Regular,Roboto Slab" font-size="110.0" fill="#FEFFFF" transform="matrix(1.00, 0.00, -0.00, -1.00, 398.9, 787.3)">S</text><text xml:space="preserve" font-family="RobotoSlab-Regular,Roboto Slab" font-size="110.0" fill="#FEFFFF" transform="matrix(1.00, 0.00, -0.00, -1.00, 465.8, 787.3)">i</text><text xml:space="preserve" font-family="RobotoSlab-Regular,Roboto Slab" font-size="110.0" fill="#FEFFFF" transform="matrix(1.00, 0.00, -0.00, -1.00, 501.9, 787.3)"> </text><text xml:space="preserve" font-family="RobotoSlab-Regular,Roboto Slab" font-size="110.0" fill="#FEFFFF" transform="matrix(1.00, 0.00, -0.00, -1.00, 529.2, 787.3)">n</text><text xml:space="preserve" font-family="RobotoSlab-Regular,Roboto Slab" font-size="110.0" fill="#FEFFFF" transform="matrix(1.00, 0.00, -0.00, -1.00, 599.4, 787.3)">o</text><text xml:space="preserve" font-family="RobotoSlab-Regular,Roboto Slab" font-size="110.0" fill="#FEFFFF" transform="matrix(1.00, 0.00, -0.00, -1.00, 661.1, 787.3)"> </text><text xml:space="preserve" font-family="RobotoSlab-Regular,Roboto Slab" font-size="110.0" fill="#FEFFFF" transform="matrix(1.00, 0.00, -0.00, -1.00, 688.4, 787.3)">p</text><text xml:space="preserve" font-family="RobotoSlab-Regular,Roboto Slab" font-size="110.0" fill="#FEFFFF" transform="matrix(1.00, 0.00, -0.00, -1.00, 755.1, 787.3)">a</text><text xml:space="preserve" font-family="RobotoSlab-Regular,Roboto Slab" font-size="110.0" fill="#FEFFFF" transform="matrix(1.00, 0.00, -0.00, -1.00, 815.6, 787.3)">r</text><text xml:space="preserve" font-family="RobotoSlab-Regular,Roboto Slab" font-size="110.0" fill="#FEFFFF" transform="matrix(1.00, 0.00, -0.00, -1.00, 862.8, 787.3)">t</text><text xml:space="preserve" font-family="RobotoSlab-Regular,Roboto Slab" font-size="110.0" fill="#FEFFFF" transform="matrix(1.00, 0.00, -0.00, -1.00, 903.1, 787.3)">i</text><text xml:space="preserve" font-family="RobotoSlab-Regular,Roboto Slab" font-size="110.0" fill="#FEFFFF" transform="matrix(1.00, 0.00, -0.00, -1.00, 939.2, 787.3)">c</text><text xml:space="preserve" font-family="RobotoSlab-Regular,Roboto Slab" font-size="110.0" fill="#FEFFFF" transform="matrix(1.00, 0.00, -0.00, -1.00, 998.5, 787.3)">i</text><text xml:space="preserve" font-family="RobotoSlab-Regular,Roboto Slab" font-size="110.0" fill="#FEFFFF" transform="matrix(1.00, 0.00, -0.00, -1.00, 1034.6, 787.3)">p</text><text xml:space="preserve" font-family="RobotoSlab-Regular,Roboto Slab" font-size="110.0" fill="#FEFFFF" transform="matrix(1.00, 0.00, -0.00, -1.00, 1101.3, 787.3)">a</text><text xml:space="preserve" font-family="RobotoSlab-Regular,Roboto Slab" font-size="110.0" fill="#FEFFFF" transform="matrix(1.00, 0.00, -0.00, -1.00, 1161.8, 787.3)">s</text><text xml:space="preserve" font-family="RobotoSlab-Regular,Roboto Slab" font-size="110.0" fill="#FEFFFF" transform="matrix(1.00, 0.00, -0.00, -1.00, 1217.9, 787.3)">/</text><text xml:space="preserve" font-family="RobotoSlab-Regular,Roboto Slab" font-size="110.0" fill="#FEFFFF" transform="matrix(1.00, 0.00, -0.00, -1.00, 1262.2, 787.3)">n</text><text xml:space="preserve" font-family="RobotoSlab-Regular,Roboto Slab" font-size="110.0" fill="#FEFFFF" transform="matrix(1.00, 0.00, -0.00, -1.00, 1332.4, 787.3)">o</text><text xml:space="preserve" font-family="RobotoSlab-Regular,Roboto Slab" font-size="110.0" fill="#FEFFFF" transform="matrix(1.00, 0.00, -0.00, -1.00, 1394.1, 787.3)"> </text><text xml:space="preserve" font-family="RobotoSlab-Regular,Roboto Slab" font-size="110.0" fill="#FEFFFF" transform="matrix(1.00, 0.00, -0.00, -1.00, 1421.4, 787.3)">t</text><text xml:space="preserve" font-family="RobotoSlab-Regular,Roboto Slab" font-size="110.0" fill="#FEFFFF" transform="matrix(1.00, 0.00, -0.00, -1.00, 1461.7, 787.3)">e</text><text xml:space="preserve" font-family="RobotoSlab-Regular,Roboto Slab" font-size="110.0" fill="#FEFFFF" transform="matrix(1.00, 0.00, -0.00, -1.00, 1520.8, 787.3)"> </text><text xml:space="preserve" font-family="RobotoSlab-Regular,Roboto Slab" font-size="110.0" fill="#FEFFFF" transform="matrix(1.00, 0.00, -0.00, -1.00, 510.4, 642.3)">d</text><text xml:space="preserve" font-family="RobotoSlab-Regular,Roboto Slab" font-size="110.0" fill="#FEFFFF" transform="matrix(1.00, 0.00, -0.00, -1.00, 576.4, 642.3)">e</text><text xml:space="preserve" font-family="RobotoSlab-Regular,Roboto Slab" font-size="110.0" fill="#FEFFFF" transform="matrix(1.00, 0.00, -0.00, -1.00, 635.5, 642.3)">j</text><text xml:space="preserve" font-family="RobotoSlab-Regular,Roboto Slab" font-size="110.0" fill="#FEFFFF" transform="matrix(1.00, 0.00, -0.00, -1.00, 666.2, 642.3)">a</text><text xml:space="preserve" font-family="RobotoSlab-Regular,Roboto Slab" font-size="110.0" fill="#FEFFFF" transform="matrix(1.00, 0.00, -0.00, -1.00, 726.7, 642.3)">n</text><text xml:space="preserve" font-family="RobotoSlab-Regular,Roboto Slab" font-size="110.0" fill="#FEFFFF" transform="matrix(1.00, 0.00, -0.00, -1.00, 797.4, 642.3)"> </text><text xml:space="preserve" font-family="RobotoSlab-Regular,Roboto Slab" font-size="110.0" fill="#FEFFFF" transform="matrix(1.00, 0.00, -0.00, -1.00, 824.7, 642.3)">p</text><text xml:space="preserve" font-family="RobotoSlab-Regular,Roboto Slab" font-size="110.0" fill="#FEFFFF" transform="matrix(1.00, 0.00, -0.00, -1.00, 891.3, 642.3)">a</text><text xml:space="preserve" font-family="RobotoSlab-Regular,Roboto Slab" font-size="110.0" fill="#FEFFFF" transform="matrix(1.00, 0.00, -0.00, -1.00, 951.9, 642.3)">r</text><text xml:space="preserve" font-family="RobotoSlab-Regular,Roboto Slab" font-size="110.0" fill="#FEFFFF" transform="matrix(1.00, 0.00, -0.00, -1.00, 999.0, 642.3)">t</text><text xml:space="preserve" font-family="RobotoSlab-Regular,Roboto Slab" font-size="110.0" fill="#FEFFFF" transform="matrix(1.00, 0.00, -0.00, -1.00, 1039.3, 642.3)">i</text><text xml:space="preserve" font-family="RobotoSlab-Regular,Roboto Slab" font-size="110.0" fill="#FEFFFF" transform="matrix(1.00, 0.00, -0.00, -1.00, 1075.4, 642.3)">c</text><text xml:space="preserve" font-family="RobotoSlab-Regular,Roboto Slab" font-size="110.0" fill="#FEFFFF" transform="matrix(1.00, 0.00, -0.00, -1.00, 1134.7, 642.3)">i</text><text xml:space="preserve" font-family="RobotoSlab-Regular,Roboto Slab" font-size="110.0" fill="#FEFFFF" transform="matrix(1.00, 0.00, -0.00, -1.00, 1170.7, 642.3)">p</text><text xml:space="preserve" font-family="RobotoSlab-Regular,Roboto Slab" font-size="110.0" fill="#FEFFFF" transform="matrix(1.00, 0.00, -0.00, -1.00, 1237.4, 642.3)">a</text><text xml:space="preserve" font-family="RobotoSlab-Regular,Roboto Slab" font-size="110.0" fill="#FEFFFF" transform="matrix(1.00, 0.00, -0.00, -1.00, 1298.0, 642.3)">r</text><text xml:space="preserve" font-family="RobotoSlab-Regular,Roboto Slab" font-size="110.0" fill="#FEFFFF" transform="matrix(1.00, 0.00, -0.00, -1.00, 1336.7, 642.3)">…</text><text xml:space="preserve" font-family="RobotoSlab-Regular,Roboto Slab" font-size="110.0" fill="#FEFFFF" transform="matrix(1.00, 0.00, -0.00, -1.00, 1409.1, 642.3)"> </text><text xml:space="preserve" font-family="RobotoSlab-Regular,Roboto Slab" font-size="110.0" fill="#FEFFFF" transform="matrix(1.00, 0.00, -0.00, -1.00, 331.2, 352.3)">N</text><text xml:space="preserve" font-family="RobotoSlab-Regular,Roboto Slab" font-size="110.0" fill="#FEFFFF" transform="matrix(1.00, 0.00, -0.00, -1.00, 415.0, 352.3)">o</text><text xml:space="preserve" font-family="RobotoSlab-Regular,Roboto Slab" font-size="110.0" fill="#FEFFFF" transform="matrix(1.00, 0.00, -0.00, -1.00, 476.7, 352.3)"> </text><text xml:space="preserve" font-family="RobotoSlab-Regular,Roboto Slab" font-size="110.0" fill="#FEFFFF" transform="matrix(1.00, 0.00, -0.00, -1.00, 504.0, 352.3)">e</text><text xml:space="preserve" font-family="RobotoSlab-Regular,Roboto Slab" font-size="110.0" fill="#FEFFFF" transform="matrix(1.00, 0.00, -0.00, -1.00, 563.1, 352.3)">r</text><text xml:space="preserve" font-family="RobotoSlab-Regular,Roboto Slab" font-size="110.0" fill="#FEFFFF" transform="matrix(1.00, 0.00, -0.00, -1.00, 607.5, 352.3)">e</text><text xml:space="preserve" font-family="RobotoSlab-Regular,Roboto Slab" font-size="110.0" fill="#FEFFFF" transform="matrix(1.00, 0.00, -0.00, -1.00, 666.6, 352.3)">s</text><text xml:space="preserve" font-family="RobotoSlab-Regular,Roboto Slab" font-size="110.0" fill="#FEFFFF" transform="matrix(1.00, 0.00, -0.00, -1.00, 722.6, 352.3)"> </text><text xml:space="preserve" font-family="RobotoSlab-Regular,Roboto Slab" font-size="110.0" fill="#FEFFFF" transform="matrix(1.00, 0.00, -0.00, -1.00, 749.9, 352.3)">u</text><text xml:space="preserve" font-family="RobotoSlab-Regular,Roboto Slab" font-size="110.0" fill="#FEFFFF" transform="matrix(1.00, 0.00, -0.00, -1.00, 816.8, 352.3)">n</text><text xml:space="preserve" font-family="RobotoSlab-Regular,Roboto Slab" font-size="110.0" fill="#FEFFFF" transform="matrix(1.00, 0.00, -0.00, -1.00, 887.5, 352.3)">a</text><text xml:space="preserve" font-family="RobotoSlab-Regular,Roboto Slab" font-size="110.0" fill="#FEFFFF" transform="matrix(1.00, 0.00, -0.00, -1.00, 948.1, 352.3)"> </text><text xml:space="preserve" font-family="RobotoSlab-Regular,Roboto Slab" font-size="110.0" fill="#FEFFFF" transform="matrix(1.00, 0.00, -0.00, -1.00, 975.4, 352.3)">c</text><text xml:space="preserve" font-family="RobotoSlab-Regular,Roboto Slab" font-size="110.0" fill="#FEFFFF" transform="matrix(1.00, 0.00, -0.00, -1.00, 1034.7, 352.3)">o</text><text xml:space="preserve" font-family="RobotoSlab-Regular,Roboto Slab" font-size="110.0" fill="#FEFFFF" transform="matrix(1.00, 0.00, -0.00, -1.00, 1096.4, 352.3)">m</text><text xml:space="preserve" font-family="RobotoSlab-Regular,Roboto Slab" font-size="110.0" fill="#FEFFFF" transform="matrix(1.00, 0.00, -0.00, -1.00, 1200.3, 352.3)">u</text><text xml:space="preserve" font-family="RobotoSlab-Regular,Roboto Slab" font-size="110.0" fill="#FEFFFF" transform="matrix(1.00, 0.00, -0.00, -1.00, 1267.2, 352.3)">n</text><text xml:space="preserve" font-family="RobotoSlab-Regular,Roboto Slab" font-size="110.0" fill="#FEFFFF" transform="matrix(1.00, 0.00, -0.00, -1.00, 1337.9, 352.3)">i</text><text xml:space="preserve" font-family="RobotoSlab-Regular,Roboto Slab" font-size="110.0" fill="#FEFFFF" transform="matrix(1.00, 0.00, -0.00, -1.00, 1374.0, 352.3)">d</text><text xml:space="preserve" font-family="RobotoSlab-Regular,Roboto Slab" font-size="110.0" fill="#FEFFFF" transform="matrix(1.00, 0.00, -0.00, -1.00, 1440.1, 352.3)">a</text><text xml:space="preserve" font-family="RobotoSlab-Regular,Roboto Slab" font-size="110.0" fill="#FEFFFF" transform="matrix(1.00, 0.00, -0.00, -1.00, 1500.6, 352.3)">d</text><text xml:space="preserve" font-family="RobotoSlab-Regular,Roboto Slab" font-size="110.0" fill="#FEFFFF" transform="matrix(1.00, 0.00, -0.00, -1.00, 1566.6, 352.3)">,</text><text xml:space="preserve" font-family="RobotoSlab-Regular,Roboto Slab" font-size="110.0" fill="#FEFFFF" transform="matrix(1.00, 0.00, -0.00, -1.00, 1588.4, 352.3)"> </text><text xml:space="preserve" font-family="RobotoSlab-Regular,Roboto Slab" font-size="110.0" fill="#FEFFFF" transform="matrix(1.00, 0.00, -0.00, -1.00, 466.7, 207.3)">e</text><text xml:space="preserve" font-family="RobotoSlab-Regular,Roboto Slab" font-size="110.0" fill="#FEFFFF" transform="matrix(1.00, 0.00, -0.00, -1.00, 525.8, 207.3)">r</text><text xml:space="preserve" font-family="RobotoSlab-Regular,Roboto Slab" font-size="110.0" fill="#FEFFFF" transform="matrix(1.00, 0.00, -0.00, -1.00, 570.2, 207.3)">e</text><text xml:space="preserve" font-family="RobotoSlab-Regular,Roboto Slab" font-size="110.0" fill="#FEFFFF" transform="matrix(1.00, 0.00, -0.00, -1.00, 629.3, 207.3)">s</text><text xml:space="preserve" font-family="RobotoSlab-Regular,Roboto Slab" font-size="110.0" fill="#FEFFFF" transform="matrix(1.00, 0.00, -0.00, -1.00, 685.3, 207.3)"> </text><text xml:space="preserve" font-family="RobotoSlab-Regular,Roboto Slab" font-size="110.0" fill="#FEFFFF" transform="matrix(1.00, 0.00, -0.00, -1.00, 712.6, 207.3)">u</text><text xml:space="preserve" font-family="RobotoSlab-Regular,Roboto Slab" font-size="110.0" fill="#FEFFFF" transform="matrix(1.00, 0.00, -0.00, -1.00, 779.5, 207.3)">n</text><text xml:space="preserve" font-family="RobotoSlab-Regular,Roboto Slab" font-size="110.0" fill="#FEFFFF" transform="matrix(1.00, 0.00, -0.00, -1.00, 850.3, 207.3)">a</text><text xml:space="preserve" font-family="RobotoSlab-Regular,Roboto Slab" font-size="110.0" fill="#FEFFFF" transform="matrix(1.00, 0.00, -0.00, -1.00, 910.8, 207.3)"> </text><text xml:space="preserve" font-family="RobotoSlab-Regular,Roboto Slab" font-size="110.0" fill="#FEFFFF" transform="matrix(1.00, 0.00, -0.00, -1.00, 938.1, 207.3)">a</text><text xml:space="preserve" font-family="RobotoSlab-Regular,Roboto Slab" font-size="110.0" fill="#FEFFFF" transform="matrix(1.00, 0.00, -0.00, -1.00, 998.6, 207.3)">u</text><text xml:space="preserve" font-family="RobotoSlab-Regular,Roboto Slab" font-size="110.0" fill="#FEFFFF" transform="matrix(1.00, 0.00, -0.00, -1.00, 1065.5, 207.3)">d</text><text xml:space="preserve" font-family="RobotoSlab-Regular,Roboto Slab" font-size="110.0" fill="#FEFFFF" transform="matrix(1.00, 0.00, -0.00, -1.00, 1131.6, 207.3)">i</text><text xml:space="preserve" font-family="RobotoSlab-Regular,Roboto Slab" font-size="110.0" fill="#FEFFFF" transform="matrix(1.00, 0.00, -0.00, -1.00, 1167.7, 207.3)">e</text><text xml:space="preserve" font-family="RobotoSlab-Regular,Roboto Slab" font-size="110.0" fill="#FEFFFF" transform="matrix(1.00, 0.00, -0.00, -1.00, 1226.8, 207.3)">n</text><text xml:space="preserve" font-family="RobotoSlab-Regular,Roboto Slab" font-size="110.0" fill="#FEFFFF" transform="matrix(1.00, 0.00, -0.00, -1.00, 1297.0, 207.3)">c</text><text xml:space="preserve" font-family="RobotoSlab-Regular,Roboto Slab" font-size="110.0" fill="#FEFFFF" transform="matrix(1.00, 0.00, -0.00, -1.00, 1356.4, 207.3)">i</text><text xml:space="preserve" font-family="RobotoSlab-Regular,Roboto Slab" font-size="110.0" fill="#FEFFFF" transform="matrix(1.00, 0.00, -0.00, -1.00, 1392.5, 207.3)">a</text><text xml:space="preserve" font-family="Harrington,Harrington" font-size="500.0" fill="#00AAD1" transform="matrix(1.00, 0.00, -0.00, -1.00, 710.0, 405.0)">—</text></g></svg>