<?xml version="1.0" encoding="UTF-8" standalone="no"?><svg xmlns="http://www.w3.org/2000/svg" xmlns:xlink="http://www.w3.org/1999/xlink" clip-rule="evenodd" stroke-miterlimit="10" viewBox="0 0 1920 1080"><desc>SVG generated by Keynote</desc><defs></defs><g transform="matrix(1.00, 0.00, -0.00, -1.00, 0.0, 1080.0)"><path d="M 0.0 1080.0 L 1920.0 1080.0 L 1920.0 0.0 L 0.0 0.0 Z M 0.0 1080.0 " fill="#00AAD1"></path><text xml:space="preserve" font-family="Futura-Medium,Futura" font-size="140.0" fill="#FEFFFF" transform="matrix(1.00, 0.00, -0.00, -1.00, 565.9, 565.5)">E</text><text xml:space="preserve" font-family="Futura-Medium,Futura" font-size="140.0" fill="#FEFFFF" transform="matrix(1.00, 0.00, -0.00, -1.00, 645.2, 565.5)">S</text><text xml:space="preserve" font-family="Futura-Medium,Futura" font-size="140.0" fill="#FEFFFF" transform="matrix(1.00, 0.00, -0.00, -1.00, 728.8, 565.5)">T</text><text xml:space="preserve" font-family="Futura-Medium,Futura" font-size="140.0" fill="#FEFFFF" transform="matrix(1.00, 0.00, -0.00, -1.00, 796.4, 565.5)">R</text><text xml:space="preserve" font-family="Futura-Medium,Futura" font-size="140.0" fill="#FEFFFF" transform="matrix(1.00, 0.00, -0.00, -1.00, 879.1, 565.5)">U</text><text xml:space="preserve" font-family="Futura-Medium,Futura" font-size="140.0" fill="#FEFFFF" transform="matrix(1.00, 0.00, -0.00, -1.00, 982.4, 565.5)">J</text><text xml:space="preserve" font-family="Futura-Medium,Futura" font-size="140.0" fill="#FEFFFF" transform="matrix(1.00, 0.00, -0.00, -1.00, 1036.2, 565.5)">A</text><text xml:space="preserve" font-family="Futura-Medium,Futura" font-size="140.0" fill="#FEFFFF" transform="matrix(1.00, 0.00, -0.00, -1.00, 1139.9, 565.5)"> </text><text xml:space="preserve" font-family="Futura-Medium,Futura" font-size="140.0" fill="#FEFFFF" transform="matrix(1.00, 0.00, -0.00, -1.00, 1183.0, 565.5)">T</text><text xml:space="preserve" font-family="Futura-Medium,Futura" font-size="140.0" fill="#FEFFFF" transform="matrix(1.00, 0.00, -0.00, -1.00, 1250.6, 565.5)">U</text><text xml:space="preserve" font-family="Futura-Medium,Futura" font-size="140.0" fill="#FEFFFF" transform="matrix(1.00, 0.00, -0.00, -1.00, 1353.9, 565.5)"> </text><text xml:space="preserve" font-family="Futura-Medium,Futura" font-size="140.0" fill="#FEFFFF" transform="matrix(1.00, 0.00, -0.00, -1.00, 499.1, 380.5)">C</text><text xml:space="preserve" font-family="Futura-Medium,Futura" font-size="140.0" fill="#FEFFFF" transform="matrix(1.00, 0.00, -0.00, -1.00, 596.5, 380.5)">O</text><text xml:space="preserve" font-family="Futura-Medium,Futura" font-size="140.0" fill="#FEFFFF" transform="matrix(1.00, 0.00, -0.00, -1.00, 721.5, 380.5)">M</text><text xml:space="preserve" font-family="Futura-Medium,Futura" font-size="140.0" fill="#FEFFFF" transform="matrix(1.00, 0.00, -0.00, -1.00, 856.2, 380.5)">U</text><text xml:space="preserve" font-family="Futura-Medium,Futura" font-size="140.0" fill="#FEFFFF" transform="matrix(1.00, 0.00, -0.00, -1.00, 959.6, 380.5)">N</text><text xml:space="preserve" font-family="Futura-Medium,Futura" font-size="140.0" fill="#FEFFFF" transform="matrix(1.00, 0.00, -0.00, -1.00, 1077.8, 380.5)">I</text><text xml:space="preserve" font-family="Futura-Medium,Futura" font-size="140.0" fill="#FEFFFF" transform="matrix(1.00, 0.00, -0.00, -1.00, 1119.1, 380.5)">D</text><text xml:space="preserve" font-family="Futura-Medium,Futura" font-size="140.0" fill="#FEFFFF" transform="matrix(1.00, 0.00, -0.00, -1.00, 1215.5, 380.5)">A</text><text xml:space="preserve" font-family="Futura-Medium,Futura" font-size="140.0" fill="#FEFFFF" transform="matrix(1.00, 0.00, -0.00, -1.00, 1319.2, 380.5)">D</text></g></svg>