<?xml version="1.0" encoding="UTF-8" standalone="no"?><svg xmlns="http://www.w3.org/2000/svg" xmlns:xlink="http://www.w3.org/1999/xlink" clip-rule="evenodd" stroke-miterlimit="10" viewBox="0 0 1920 1080"><desc>SVG generated by Keynote</desc><defs></defs><g transform="matrix(1.00, 0.00, -0.00, -1.00, 0.0, 1080.0)"><image xlink:href="../../272A435F-23B4-47DD-A1DC-1101BC347B88/assets/9FDD7FEBA2F1A1425141045D8C9EBD89.png" width="1920.00" height="1080.00" transform="matrix(1.00, 0.00, -0.00, -1.00, 0.0, 1080.0)"></image><image xlink:href="../../759B9E97-4B65-45CB-A137-A4CAD7A89924/assets/10BFDF9E0109005FA0A775985C5DC815.png" width="237.00" height="185.00" transform="matrix(3.22, 0.00, -0.00, -3.22, 34.6, 828.2)"></image><image xlink:href="../../759B9E97-4B65-45CB-A137-A4CAD7A89924/assets/DA807AD9E35049360A938EF9DFE8987A.png" width="765.00" height="614.00" transform="matrix(1.00, 0.00, -0.00, 1.00, 33.6, 223.8)"></image><image xlink:href="../../759B9E97-4B65-45CB-A137-A4CAD7A89924/assets/0D70FB6A06845F3F51B0D5A916B6851E.png" width="310.00" height="94.00" transform="matrix(0.50, 0.00, -0.00, -0.50, 338.4, 856.2)"></image><image xlink:href="../../759B9E97-4B65-45CB-A137-A4CAD7A89924/assets/29D2B9941B40262496CA9F7A37940124.png" width="500.00" height="280.00" transform="matrix(2.12, 0.00, -0.00, -2.12, 824.7, 828.0)"></image><image xlink:href="../../759B9E97-4B65-45CB-A137-A4CAD7A89924/assets/7428849475D7F1FC78C8280CCE7CEB18.png" width="1064.00" height="614.00" transform="matrix(1.00, 0.00, -0.00, 1.00, 823.7, 224.0)"></image><image xlink:href="../../759B9E97-4B65-45CB-A137-A4CAD7A89924/assets/0D70FB6A06845F3F51B0D5A916B6851E.png" width="310.00" height="94.00" transform="matrix(0.50, 0.00, -0.00, -0.50, 1278.4, 856.0)"></image></g></svg>